<svg xmlns="http://www.w3.org/2000/svg">
		<path id="Shape" d="m34.087 28.415c0.144-0.821 0.096-1.594 0.384-2.271 0.144-0.29 0.192-0.628 0.289-0.918 0.192-0.725 0.528-1.257 1.202-1.643 0.384-0.194 0.673-0.483 1.057-0.677 0.385-0.193 0.818-0.29 1.25-0.29h2.981c0.481 0 0.962 0.049 1.442-0.29 0.193-0.145 0.529-0.145 0.818-0.193 0.144-0.048 0.336-0.097 0.48-0.145 0.625-0.242 0.914-0.725 0.818-1.353-0.096-0.918-0.289-1.836-0.529-2.706-0.144-0.629-0.385-1.257-0.625-1.837-0.241-0.628-0.625-1.159-1.01-1.691-0.721-0.967-1.586-1.788-2.404-2.61-0.432-0.435-0.913-0.869-1.394-1.256-0.24-0.193-0.433-0.387-0.625-0.58-0.336-0.3866-0.769-0.6282-1.154-0.9665-0.817-0.6765-1.682-1.4014-2.548-2.0296-0.096-0.0484-0.192-0.0967-0.288-0.145-0.385-0.1933-0.769-0.435-1.106-0.7249-0.481-0.3383-0.865-0.7732-1.49-0.9182-0.097 0-0.241-0.0966-0.289-0.2899 0.337-0.1933 0.769-0.145 1.106-0.3866 0.144-0.0967 0.336 0.0483 0.481 0.1449 0.721 0.435 1.442 0.7732 2.115 1.3048 0.337 0.29 0.721 0.4833 1.106 0.6282 0.529 0.2417 1.009 0.6766 1.49 1.0149 0.962 0.6765 1.923 1.3531 2.789 2.1263 1.586 1.4016 2.98 2.9476 4.279 4.5906 0.817 1.063 1.49 2.223 1.923 3.48 0.336 0.87 0.577 1.788 0.577 2.803 0 1.063-0.385 1.933-0.914 2.754-0.288 0.483-0.817 0.725-1.298 0.918-0.529 0.242-1.01 0.532-1.538 0.58-0.625 0.097-1.25 0.242-1.924 0.194-0.913-0.049-1.875-0.097-2.788-0.097-0.962 0-1.779 0.386-2.548 0.966-0.433 0.339-0.673 0.919-0.769 1.45-0.145 0.628-0.241 1.257-0.337 1.885-0.048 0.29 0.096 0.531 0.289 0.725 0.528 0.531 1.009 1.111 1.442 1.691 0.865 1.16 1.683 2.32 2.5 3.48 1.058 1.449 2.067 2.947 3.125 4.397 0.048 0.048 0.096 0.145 0.144 0.193 0.096 0.629 0.577 0.629 1.01 0.629 0.865 0.048 1.779 0.145 2.596 0.483 1.346 0.532 2.404 1.353 2.788 2.851 0.193 0.677 0.529 1.257 0.673 1.933 0.049 0.145 0.193 0.193 0.289 0.242 0.769 0.483 1.106 1.256 1.442 2.029 0.144 0.339 0.144 0.677-0.048 1.015-0.24 0.435-0.192 0.773 0.241 1.16 0.48 0.387 0.769 0.967 0.913 1.546 0.048 0.097 0.048 0.242 0.048 0.339-0.144 0.531-0.048 1.063-0.192 1.594-0.096 0.242 0 0.435 0.192 0.629 0.577 0.676 1.058 1.449 1.346 2.271 0.385 0.967 0.673 1.933 0.673 2.948 0 0.821-0.096 1.691-0.913 2.223-0.048 0.048-0.096 0.096-0.144 0.145-0.337 0.386-0.337 0.386-0.097 0.821 0.481 0.87 1.01 1.692 1.443 2.562 0.144 0.29 0.336 0.531 0.481 0.773 0.288 0.483 0.673 0.87 0.865 1.45 0.048 0.096 0.096 0.241 0.144 0.29 0.914 1.014 1.298 2.319 2.019 3.431 0.481 0.724 0.866 1.498 1.25 2.271 0.673 1.401 1.347 2.803 1.923 4.253 0.481 1.159 0.674 2.367 0.529 3.624-0.048 0.532 0.096 1.015-0.048 1.546-0.048 0.145 0.096 0.242 0.241 0.29 0.865 0.435 1.202 1.208 1.394 2.078 0.096 0.387 0.096 0.773 0.144 1.208 0.048 0.145 0.096 0.29 0.24 0.387 0.385 0.193 0.577 0.532 0.818 0.87 0.384 0.628 0.673 1.305 0.865 1.981 0.096 0.29 0 0.532-0.048 0.725-0.096 0.29 0 0.483 0.192 0.677 0.962 0.918 1.347 1.981 1.106 3.286-0.048 0.193 0.048 0.29 0.192 0.386 0.674 0.532 1.106 1.257 1.443 2.03 0.192 0.483 0.144 0.967 0.144 1.45 0 0.386 0 0.773 0.24 1.111 0.193 0.29 0.145 0.339-0.192 0.435-0.288 0.097-0.577 0.097-0.817-0.193-0.241-0.29-0.529-0.338-0.914-0.145-0.673 0.29-1.442 0.435-2.163 0.628-0.144 0.045-0.337 0-0.385 0.245-0.096 0.34-0.432 0.24-0.673 0.29-0.288 0.05-0.529 0.05-0.625-0.34-0.048-0.195-0.24-0.243-0.384-0.34-0.866-0.773-1.395-1.691-1.25-2.899 0.048-0.29-0.097-0.435-0.337-0.532-0.385-0.193-0.673-0.435-0.962-0.725-0.48-0.435-0.576-1.015-0.673-1.595v-0.193c0.097-0.58-0.144-0.918-0.625-1.208-0.625-0.338-1.009-0.966-1.346-1.595-0.144-0.338-0.192-0.725-0.096-1.063 0.048-0.145 0.096-0.338 0.096-0.531 0.048-0.242 0-0.435-0.288-0.532-0.289-0.097-0.481-0.338-0.625-0.628-0.481-0.773-0.818-1.595-0.769-2.561 0-0.242-0.145-0.387-0.337-0.484-0.481-0.29-0.625-0.725-0.721-1.256-0.096-0.387-0.144-0.773-0.144-1.16 0-0.677 0.144-1.256 0.432-1.836 0.289-0.58 0.77-1.015 1.395-1.257 0.192-0.048 0.384-0.096 0.625-0.145 0.144-0.048 0.24-0.096 0.192-0.338-0.289-0.918-0.625-1.788-0.962-2.658-0.192-0.483-0.384-0.966-0.625-1.401-0.625-1.257-1.202-2.562-1.875-3.77s-1.057-2.513-1.923-3.624c-0.24-0.29-0.432-0.628-0.625-0.967-0.384-0.531-0.865-1.063-1.202-1.643-0.096-0.193-0.24-0.29-0.48-0.145-0.866 0.387-1.731 0.677-2.645 0.918-1.154 0.242-2.355 0.242-3.509-0.096-0.289-0.097-0.577-0.194-0.818-0.435-0.192-0.242-0.336-0.145-0.48 0.097-0.433 0.676-0.914 1.401-1.347 2.078-0.721 1.014-1.346 2.126-2.163 3.044-0.288 0.29-0.433 0.677-0.625 1.015-0.192 0.386-0.048 0.773 0 1.111 0.096 0.725 0.24 1.498 0.337 2.223 0.096 0.725-0.049 1.45-0.193 2.175-0.24 1.305-0.384 2.609-0.721 3.866-0.096 0.435-0.24 0.87-0.433 1.305-0.288 0.58-0.336 1.208-0.528 1.836-0.145 0.435-0.289 0.87-0.433 1.305-0.481 1.305-0.962 2.658-1.442 3.963-0.241 0.628-0.529 1.208-0.77 1.836-0.192 0.58-0.432 1.111-0.673 1.643-0.144 0.29-0.336 0.387-0.577 0.29-0.24-0.097-0.288 0-0.384 0.193-0.145 0.242-0.337 0.435-0.673 0.194-0.048-0.049-0.097-0.049-0.145 0-0.144 0.048-0.24 0.193-0.384 0.048-0.096-0.145-0.096-0.338-0.048-0.483 0.24-0.629 0.48-1.209 0.721-1.837 0.433-0.966 0.817-1.933 1.106-2.899 0.384-1.257 0.913-2.465 1.202-3.721 0.192-0.87 0.625-1.692 0.817-2.562 0.433-1.788 1.058-3.527 1.346-5.364 0.144-0.918 0.24-1.836 0.096-2.754-0.048-0.29-0.144-0.387-0.433-0.387-1.057 0-2.115-0.29-3.076-0.58-1.924-0.531-3.75-1.305-5.433-2.464-0.385-0.242-0.769-0.484-1.154-0.677-0.577-0.242-1.106-0.531-1.538-0.966-0.337-0.29-0.385-0.29-0.625 0.048-0.337 0.435-0.674 0.87-1.01 1.305-0.529 0.676-1.058 1.353-1.539 2.078-0.336 0.483-0.576 1.063-0.865 1.546-0.961 1.643-1.779 3.383-2.692 5.026-0.721 1.256-1.346 2.513-2.019 3.818-0.529 1.014-1.058 2.029-1.491 3.044-0.529 0.387-0.529 1.112-1.058 1.547-0.24 0.193-0.384 0.579-0.528 0.869-0.097 0.194-0.193 0.29-0.433 0.145-0.144-0.096-0.337-0.145-0.529-0.193-0.096 0-0.24-0.048-0.288-0.145-0.097-0.29-0.241-0.338-0.529-0.386-0.241 0-0.289-0.29-0.193-0.532 0.097-0.193 0.289-0.338 0.433-0.532 0.385-0.676 0.673-1.401 1.01-2.078 0.481-1.063 1.057-2.029 1.586-3.092 0.914-1.74 1.779-3.577 2.741-5.316 1.009-1.837 2.067-3.673 3.269-5.364 0.481-0.677 0.865-1.402 1.346-2.078 0.529-0.725 1.058-1.402 1.635-2.078 0.577-0.677 1.009-1.45 1.105-2.417 0.049-0.58 0.241-1.111 0.337-1.643 0.048-0.386 0.144-0.773 0.144-1.159 0-0.58 0.096-1.112 0.096-1.644 0-2.126-0.144-4.204-0.48-6.282-0.145-0.918-0.289-1.836-0.337-2.754 0-0.822 0.048-1.692 0.24-2.513 0.289-1.16 0.385-2.32 0.577-3.48 0.048-0.338 0.097-0.725 0.193-1.063 0.096-0.29 0.048-0.531-0.145-0.725-1.153-1.353-2.067-2.803-2.932-4.349-0.481-0.87-0.914-1.788-1.01-2.803 0-0.097-0.048-0.242-0.096-0.338-0.577-1.74-0.385-3.48 0.529-5.074 0.433-0.725 0.817-1.45 1.394-2.03 1.154-1.256 2.5-2.175 4.183-2.561 0.769-0.194 1.49-0.435 2.307-0.339 0.145 0 0.241 0 0.385-0.048 0.337-0.097 0.625-0.048 0.914 0.145 0.673 0.435 1.394 0.822 2.019 1.353 0.529 0.339 1.154 0.87 1.731 1.498zm-7.885 16.866c-0.144 0.58-0.096 1.111-0.192 1.643-0.289 1.256-0.529 2.513-0.385 3.818 0.048 0.386 0.096 0.725 0.096 1.111 0 1.257 0.289 2.465 0.289 3.721 0 0.677 0.048 1.353 0.144 2.03 0.144 1.063 0 2.126 0.096 3.238 0.144 1.643-0.048 3.237-0.481 4.784-0.144 0.58-0.048 0.87 0.337 1.16 0.096 0.048 0.144 0.145 0.192 0.193 1.587 1.111 3.173 2.271 4.952 3.044 1.202 0.532 2.404 0.967 3.702 1.257 0.192 0.048 0.385 0.048 0.577 0.145 0.577 0.193 0.577 0.193 0.961-0.29 1.01-1.498 1.972-2.948 2.981-4.446 0.481-0.725 0.914-1.401 1.346-2.126 0.433-0.774 0.914-1.498 1.298-2.32 0.289-0.628 0.673-1.111 1.25-1.45 0.241-0.145 0.481-0.386 0.722-0.58 0.673-0.724 1.298-1.449 2.019-2.126 1.538-1.45 2.836-3.141 4.375-4.591 0.577-0.531 0.673-1.256 0.529-1.981-0.048-0.29-0.193-0.532-0.481-0.677-0.769-0.386-1.539-0.241-2.308-0.048-0.865 0.242-1.49 0.821-2.019 1.45-0.529 0.628-1.154 1.111-1.683 1.739-0.192 0.242-0.529 0.339-0.769 0.242-0.288-0.097-0.337-0.435-0.337-0.725 0-0.241 0.097-0.435 0.241-0.628 0.384-0.435 0.721-0.918 1.106-1.305 0.48-0.531 0.961-1.015 1.586-1.353 0.817-0.435 1.587-0.918 2.548-0.918 0.144 0 0.289-0.048 0.433-0.097 0.385-0.096 0.481-0.241 0.433-0.628-0.097-0.58-0.385-1.015-0.818-1.401-0.288-0.242-0.625-0.29-0.961-0.339-0.481-0.048-0.962-0.241-1.394-0.145-0.625 0.097-1.25 0.097-1.875 0.194-0.385 0.048-0.818 0-1.154 0.193-0.577 0.338-1.202 0.628-1.683 1.111-0.433 0.435-0.962 0.629-1.538 0.725-0.337 0.049-0.385-0.048-0.337-0.386 0.048-0.29 0.144-0.532 0.288-0.725 0.481-0.58 1.01-1.16 1.539-1.692 0.529-0.483 1.106-0.821 1.875-0.773 0.24 0 0.481 0 0.721-0.048 0.914-0.097 1.827-0.242 2.74-0.097 0.385 0.097 0.577-0.096 0.529-0.531s-0.288-0.822-0.529-1.16c-0.576-0.822-1.346-1.208-2.259-1.498-0.289-0.097-0.529 0.048-0.817 0-0.577-0.145-1.154-0.097-1.779-0.049-0.577 0.049-1.058 0.145-1.539 0.435-0.721 0.435-1.442 0.822-2.163 1.305-1.443 0.87-2.644 2.03-3.75 3.286-0.144 0.145-0.241 0.242-0.433 0.194-0.385-0.097-0.625-0.339-0.625-0.725 0-0.967 0-1.885 0.048-2.852 0.096-1.256 0.192-2.464 0.048-3.721 0-0.193-0.096-0.338-0.096-0.531 0-1.257-0.481-2.368-0.913-3.48-0.145-0.386-0.481-0.724-0.818-0.966-0.24-0.193-0.625-0.29-0.817-0.145-0.24 0.193-0.288 0.435-0.192 0.725s0.144 0.58 0.192 0.821c0.144 0.774 0.048 1.595 0.096 2.368 0.048 1.498-0.288 2.948-0.769 4.35-0.433 1.208-0.769 2.416-1.298 3.576-0.048 0.096-0.048 0.241-0.048 0.338 0 1.111-0.241 2.223-0.241 3.334 0 0.677-0.048 1.305-0.096 1.982 0 0.145 0.048 0.338-0.144 0.435-0.385-0.145-0.625-0.435-0.817-0.822-0.241-0.58-0.241-1.256-0.337-1.836-0.096-0.822-0.192-1.692-0.048-2.513 0.048-0.338-0.048-0.58-0.288-0.822-0.289-0.29-0.529-0.58-0.722-0.918-0.048-0.338-0.144-0.435-0.336-0.483zm9.952-2.03c0.433-0.241 0.721-0.483 1.009-0.773 0.433-0.387 0.866-0.773 1.395-1.015 0.48-0.241 0.961-0.58 1.49-0.725 0.24-0.048 0.289-0.193 0.144-0.483-0.48-0.918-1.105-1.74-1.586-2.61-0.529-0.918-1.202-1.691-1.827-2.561-1.058-1.498-2.26-2.899-3.462-4.301-1.057-1.208-2.211-2.319-3.365-3.383-0.481-0.434-1.01-0.821-1.683-0.434-0.048 0.048-0.144 0-0.24 0.048-1.01 0.242-2.019 0.531-2.933 1.111-0.769 0.532-1.346 1.257-1.971 1.933-0.24 0.29-0.481 0.532-0.625 0.919-0.192 0.483-0.385 0.966-0.577 1.449-0.144 0.387-0.192 0.725-0.048 1.112 0.048 0.096 0.048 0.241 0.048 0.338 0.192 1.546 0.673 3.045 1.49 4.398 1.058 1.739 2.164 3.479 3.366 5.122 0.336 0.483 0.721 0.87 1.106 1.305 0.096 0.097 0.144 0.242 0.336 0.193 0.577-0.821 0.817-1.739 1.01-2.706 0.24-1.111 0.288-2.271 0.432-3.383 0.097-0.87 0.145-1.739-0.048-2.561-0.192-0.822-0.096-1.546 0.337-2.32 0.433-0.821 1.971-1.208 2.692-0.773 1.01 0.628 1.731 1.45 2.164 2.513 0.432 1.063 0.865 2.175 0.961 3.383 0.048 0.725 0.193 1.401 0.241 2.126 0.096 0.58 0.048 1.257 0.144 2.078zm8.509 21.022c0.145-0.049 0.337-0.097 0.481-0.049 0.818 0 1.635-0.096 2.452-0.241 0.577-0.097 1.058-0.29 1.539-0.628 1.346-0.967 2.644-1.982 3.509-3.432 0.096-0.145 0.193-0.29 0.096-0.483-0.096-0.193-0.144-0.386-0.24-0.58-0.529-1.015-1.01-2.078-1.538-3.093-0.097-0.145-0.145-0.145-0.289-0.048-0.096 0.097-0.24 0.193-0.336 0.338-0.625 0.677-1.25 1.354-1.875 2.03-0.674 0.822-1.443 1.498-2.164 2.223-0.673 0.725-1.394 1.401-2.067 2.078-0.289 0.29-0.625 0.483-0.818 0.822-0.24 0.386-0.24 0.386 0.145 0.579 0.192 0.097 0.384 0.194 0.529 0.339 0.24 0.096 0.384 0.145 0.576 0.145zm12.741 16.527c-0.385 0.242-0.769 0.483-1.154 0.725-0.433 0.29-0.529 0.676-0.433 1.16 0.048 0.193 0.048 0.338 0.145 0.483 0.528 1.16 1.105 1.45 2.259 1.015 0.529-0.194 1.01-0.58 1.346-1.063 0.577-0.87 0.866-1.788 0.866-2.852 0-1.594-0.577-2.996-1.346-4.349-0.433-0.773-0.866-1.498-1.299-2.223-0.432-0.773-0.817-1.546-1.25-2.368-0.048-0.145-0.24-0.241-0.24-0.386-0.144-0.919-0.721-1.643-1.154-2.465-0.769-1.498-1.634-2.899-2.5-4.349-0.096-0.145-0.24-0.29-0.336-0.484-0.096-0.144-0.193-0.289-0.433-0.096-0.337 0.241-0.337 0.29-0.24 0.58 0.721 1.45 1.49 2.803 2.259 4.204 0.289 0.532 0.673 1.015 0.962 1.595 0.336 0.725 0.721 1.401 1.106 2.078 0.384 0.676 0.721 1.401 1.057 2.126 0.481 0.918 0.962 1.885 1.394 2.851 0.337 0.774 0.577 1.595 0.722 2.417 0.096 0.483 0 1.014-0.048 1.498-0.145 0.821-0.529 1.498-1.25 1.933-0.337 0.193-0.577 0.145-0.722-0.242-0.144-0.338-0.144-0.677 0.048-1.015 0.193-0.193 0.289-0.435 0.241-0.773zm3.509 10.39c0.962-0.145 2.02-0.677 2.981-1.498 0.289-0.242 0.337-0.58 0.144-0.967-0.24-0.435-0.625-0.773-1.105-0.966-0.193-0.097-0.337 0-0.481 0.145-0.192 0.241-0.433 0.338-0.721 0.483-0.385 0.193-0.769 0.387-1.106 0.58-0.385 0.242-0.817 0.435-1.298 0.338-0.289-0.048-0.433 0.097-0.433 0.387 0 0.145 0 0.29 0.048 0.435 0.289 0.725 0.914 1.111 1.971 1.063zm3.318 7.49c0.384-0.096 0.817-0.096 1.298-0.241 0.577-0.145 1.058-0.483 1.394-0.918 0.24-0.29 0.289-0.435 0.048-0.774-0.24-0.435-0.577-0.725-1.058-0.918-0.288-0.145-0.48-0.145-0.721 0-0.48 0.29-1.009 0.532-1.586 0.677-0.193 0.048-0.337 0.193-0.385 0.386-0.096 0.339-0.144 0.677-0.096 1.015 0.192 0.532 0.481 0.773 1.106 0.773zm-5.769-11.018c0.432 0.049 0.865-0.145 1.298-0.29 0.817-0.241 1.634-0.58 2.259-1.208 0.577-0.628 0.577-0.966 0.096-1.546-0.048-0.049-0.096-0.097-0.144-0.194-0.336-0.338-0.433-0.338-0.769 0-0.721 0.822-1.587 1.402-2.644 1.643-0.241 0.049-0.529 0.097-0.77 0.145-0.144 0-0.192 0.049-0.24 0.194-0.144 0.676 0.24 1.256 0.914 1.256zm2.355 5.364c0.241 0.242 0.096 0.629 0.385 0.822 0.288 0.193 0.433 0.435 0.769 0.58 0.241 0.096 0.433 0.145 0.721 0.145 0.577-0.049 1.106-0.194 1.635-0.339 0.769-0.193 1.106-0.724 1.01-1.498-0.049-0.338-0.241-0.58-0.481-0.821-0.433-0.387-0.577-0.387-1.01-0.048-0.192 0.144-0.384 0.241-0.577 0.386-0.817 0.387-1.586 0.677-2.452 0.773z"/>
		<path id="Path" d="m54.087 20.393c0.336 0.822 0.721 1.547 1.009 2.32 0.529 1.353 1.25 2.658 1.539 4.108 0.192 1.111 0.096 2.174-0.433 3.189-0.337 0.628-0.721 1.208-1.298 1.546-0.241 0.145-0.289 0.387-0.337 0.629-0.144 1.449 0.145 2.803 0.721 4.107 0.337 0.774 0.577 1.643 0.625 2.513 0 0.194 0.049 0.435 0.097 0.628 0.144 1.015-0.097 1.934-0.673 2.803-0.145 0.194-0.337 0.339-0.625 0.387-0.337 0.048-0.674 0.193-1.01 0.387-0.529 0.338-1.106 0.483-1.731 0.483-0.529 0-0.913 0.338-1.25 0.725-0.144 0.193-0.288 0.386-0.577 0.29-0.288-0.049-0.336-0.29-0.384-0.58-0.097-0.484 0-0.87 0.288-1.16 0.385-0.435 0.721-0.822 1.346-0.918 0.577-0.097 1.154-0.194 1.731-0.387 0.769-0.241 1.346-1.015 1.106-1.788-0.289-1.015-0.481-2.078-0.818-3.093-0.24-0.773-0.432-1.546-0.721-2.319-0.096-0.194-0.144-0.387-0.24-0.58-0.481-1.015-0.385-2.465 0.625-3.335 0.433-0.338 0.769-0.773 1.202-1.063 0.192-0.145 0.288-0.386 0.336-0.628 0.048-0.773 0-1.595-0.144-2.368-0.192-1.256-0.817-2.368-1.25-3.528-0.336-0.821-0.865-1.498-1.202-2.319-0.096-0.242-0.288-0.387-0.577-0.387-0.529 0-1.057-0.097-1.49-0.387-0.385-0.241-0.721-0.531-0.817-1.063-0.048-0.338 0-0.483 0.336-0.531 0.625-0.097 1.298-0.097 1.923 0 0.914 0.145 1.779 0.145 2.693 0 0.817-0.145 1.538-0.629 2.211-1.112 0.433-0.29 0.529-0.773 0.385-1.353-0.529-1.643-1.346-3.044-2.5-4.301-0.577-0.628-1.154-1.256-1.779-1.8846-0.721-0.7248-1.539-1.2564-2.356-1.6913-0.577-0.29-1.058-0.6283-1.635-0.9665-0.528-0.29-1.105-0.58-1.586-0.9182-0.577-0.3866-1.298-0.4833-1.923-0.7249-0.866-0.29-1.779-0.6282-2.692-0.8699-1.299-0.3382-2.597-0.5799-3.895-0.7732-1.49-0.2416-3.029-0.4349-4.519-0.7732-0.961-0.2416-1.971-0.2899-2.981-0.2416-0.529 0-1.057 0.145-1.538 0.3383-0.962 0.3866-1.923 0.8215-2.885 1.2564-0.336 0.145-0.673 0.3866-0.961 0.6283-0.529 0.4349-1.058 0.9181-1.635 1.3047-1.154 0.7733-2.019 1.8364-2.885 2.8996-0.576 0.7248-1.105 1.4501-1.586 2.2711-0.529 0.967-0.865 2.03-1.154 3.093-0.24 0.918-0.481 1.836-0.673 2.755-0.288 1.256-0.529 2.561-0.625 3.866-0.144 1.498-0.096 2.947-0.096 4.445 0 0.919 0.096 1.837 0.288 2.755 0.241 1.16 0.529 2.271 0.962 3.383 0.144 0.29 0.192 0.628 0.288 0.918 0.145 0.677 0.385 1.256 0.673 1.885 0.097 0.241 0.097 0.531-0.048 0.676-0.24 0.194-0.432 0.049-0.625-0.096-0.144-0.097-0.288-0.194-0.336-0.387-0.481-1.063-1.106-2.078-1.443-3.189-0.288-1.015-0.673-2.03-0.913-3.093-0.096-0.435-0.24-0.87-0.337-1.257-0.096-0.29-0.144-0.58-0.144-0.918 0-0.048 0-0.097-0.048-0.193-0.24-0.58-0.144-1.208-0.24-1.837-0.096-0.628-0.096-1.208-0.096-1.836 0-0.483 0-1.015 0.096-1.498 0.096-0.435 0.144-0.822 0.144-1.257 0-1.256 0.337-2.416 0.625-3.624 0.048-0.145 0.096-0.242 0.096-0.387-0.048-0.724 0.192-1.353 0.433-2.029 0.24-0.58 0.433-1.208 0.625-1.788 0.144-0.339 0.336-0.677 0.481-1.015 0.528-1.0149 1.105-2.0297 1.778-2.9479 0.145-0.2416 0.337-0.4349 0.529-0.6282 0.337-0.3867 0.77-0.7733 1.01-1.2565 0.24-0.4349 0.673-0.6282 1.01-0.9182 1.153-1.0148 2.5-1.788 3.798-2.5612 0.769-0.435 1.586-0.7249 2.355-1.0632 0.048 0 0.097-0.0483 0.097-0.0483 0.817 0.0483 1.538-0.38662 2.259-0.67657 0.192-0.09665 0.385-0.04833 0.577-0.09665 0.625-0.04833 1.298 0.04832 1.923-0.04833 0.385-0.04832 0.769 0.14498 1.154 0.1933 0.865 0.04833 1.731 0.24163 2.548 0.28996 1.346 0.04832 2.596 0.53159 3.942 0.77319 0.385 0.0483 0.77 0.2416 1.154 0.3383 1.01 0.2899 2.068 0.4832 3.077 0.7732 1.106 0.3866 2.212 0.6765 3.221 1.2565 0.818 0.4349 1.635 0.7248 2.5 1.0631 0.625 0.2416 1.202 0.6766 1.827 0.9665 0 0 0.048 0 0.048 0.0483 1.683 1.5948 3.606 2.9479 4.712 5.0747 0.336 0.628 0.721 1.208 1.154 1.836 0.817 1.256 1.057 2.609 0.721 4.011-0.096 0.483-0.241 0.918-0.481 1.353-0.481 0.773-1.202 1.208-2.019 1.595-0.481 0.241-1.01 0.386-1.587 0.29-0.144 0.193-0.288 0.241-0.48 0.241z"/>
		<path id="Path" d="m74.952 88.145c0 0.58-0.337 0.967-0.769 1.064-0.433 0.096-0.866-0.097-1.106-0.532-0.096-0.145-0.144-0.338-0.192-0.483-0.914-3.238-1.923-6.427-3.173-9.569-0.818-2.029-1.491-4.107-2.356-6.089-0.818-1.981-1.635-3.962-2.452-5.944-0.866-1.981-1.683-3.962-2.26-6.089-0.096-0.386-0.288-0.773-0.577-1.063-0.432-0.435-0.721-0.966-0.961-1.546-0.144-0.387-0.481-0.677-0.673-1.015-0.385-0.725-0.866-1.45-1.298-2.175-0.481-0.821-1.106-1.498-1.779-2.174-0.769-0.725-1.587-1.402-2.308-2.175-0.385-0.435-0.865-0.725-1.346-1.111-0.192-0.145-0.289-0.29-0.192-0.484 0.096-0.193 0.288-0.145 0.528-0.096 0.962 0.241 1.731 0.773 2.5 1.353 0.529 0.435 1.058 0.725 1.539 1.208 1.01 0.918 2.067 1.836 3.029 2.851 0.529 0.58 0.913 1.257 1.394 1.836 0.288 0.387 0.673 0.774 0.913 1.257 0.433 0.87 0.962 1.691 1.202 2.658 0.433 1.691 1.058 3.286 1.731 4.832 1.923 4.446 3.702 8.941 5.433 13.483 1.106 2.948 2.115 5.896 2.981 8.892 0.096 0.387 0.192 0.773 0.192 1.111z"/>
		<path id="Path" d="m19.375 39.433c-0.144-0.386 0.144-0.724 0.144-1.063 0-0.145 0.144-0.193 0.241-0.241 0.144-0.049 0.24 0.048 0.288 0.145 0.529 0.966 1.01 1.933 0.769 3.141-0.096 0.531-0.096 1.111-0.192 1.643-0.24 1.256-0.817 2.32-1.394 3.383-0.241 0.386-0.481 0.725-0.818 1.015-0.336 0.289-0.384 0.579-0.24 0.966 0.337 0.87 0.577 1.691 1.058 2.513 0.24 0.435 0.384 0.918 0.577 1.353 0.384 0.822 0.913 1.546 1.394 2.32 0.625 0.918 1.154 1.933 1.779 2.899 0.096 0.145 0.096 0.338 0.096 0.532-0.096 0.435-0.385 0.725-0.625 1.063-0.144 0.193-0.385 0.048-0.529-0.097-0.433-0.386-0.769-0.87-1.058-1.353-0.817-1.353-1.634-2.706-2.403-4.108-0.577-1.111-1.154-2.222-1.683-3.334-0.192-0.387-0.192-0.387-0.577-0.242-0.385 0.194-0.721 0.532-1.058 0.822-1.057 0.966-2.356 1.498-3.654 1.981-1.202 0.435-2.3554 0.967-3.5573 1.498-2.1635 0.919-3.9904 2.272-5.625 3.915-0.3846 0.386-0.8654 0.725-1.25 1.063-0.09616 0.097-0.24039 0.145-0.38462 0.048-0.14423-0.096-0.09616-0.241-0.04808-0.338 0.19231-0.338-0.09615-0.58-0.24038-0.822-0.24039-0.435-0.28847-0.435 0-0.821 0.91348-1.16 1.9712-2.175 3.1731-2.996 1.5385-1.015 3.0769-1.933 4.7596-2.658 1.0577-0.483 2.0677-1.015 3.1727-1.305 0.241-0.048 0.481-0.193 0.673-0.338 0.625-0.435 1.299-0.725 1.924-1.112 1.394-0.87 2.548-2.029 3.365-3.479 0.385-0.677 0.817-1.305 1.154-1.982 0.432-0.918 0.577-1.933 0.721-2.947 0-0.29 0.144-0.677 0.048-1.064z"/>
		<path id="Path" d="m45.481 28.609c1.394 0 2.644 0.435 3.798 1.256 0.433 0.29 0.433 0.483 0.096 0.822-0.433 0.386-0.433 0.386-0.962 0.193-1.153-0.483-2.307-0.822-3.557-0.822-0.769 0-1.539-0.048-2.26 0.145-0.336 0.049-0.481-0.048-0.577-0.29-0.096-0.29 0.096-0.435 0.289-0.531 0.48-0.193 0.961-0.483 1.49-0.532 0.529-0.096 1.058-0.29 1.683-0.241z"/>
		<path id="Path" d="m48.702 31.846c0 0.29-0.048 0.484 0.048 0.725 0.192 0.387-0.144 0.822-0.577 0.822-1.586 0.096-2.933-0.435-4.279-1.257-0.192-0.096-0.384-0.29-0.481-0.483-0.144-0.29-0.048-0.531 0.289-0.58 0.192 0 0.336 0.049 0.481 0.097 0.769 0.29 1.49 0.531 2.307 0.531 0.481 0 0.962 0.049 1.395 0 0.336 0 0.577 0.145 0.817 0.145z"/>
</svg>
