<svg xmlns="http://www.w3.org/2000/svg">
	<path id="Itinerary" d="m33.077 11.106c-0.193-0.242-0.338-0.484-0.434-0.725-0.145-0.4351-0.386-0.8217-0.628-1.2083-0.531-0.9182-1.206-1.788-1.833-2.7062-0.724-1.0632-1.593-2.078-2.365-3.0928-0.386-0.5316-0.82-1.0149-1.11-1.5948-0.096-0.1933-0.241-0.1933-0.434-0.145-0.724 0.145-1.448 0.3867-2.123 0.7733-0.628 0.3382-1.255 0.6765-1.834 1.1114-0.386 0.29-0.82 0.435-1.255 0.6766-1.158 0.5799-2.316 1.2081-3.522 1.7397-1.544 0.7249-3.04 1.4981-4.584 2.2713-0.338 0.145-0.676 0.3866-0.965 0.5799-1.062 0.7732-2.2684 1.3049-3.4265 1.9329-1.2547 0.677-2.6058 1.208-3.8604 1.885-0.6756 0.338-1.3029 0.725-2.0267 0.966-0.0483 0-0.0965 0.097-0.193 0.097-0.1931 0.048-0.2413 0.193-0.1448 0.338 0.0965 0.194 0.193 0.387 0.3378 0.58 0.9168 1.208 1.7371 2.465 2.5575 3.721 0.579 0.87 1.1098 1.692 1.6889 2.561 0.3378 0.532 0.7238 1.112 0.9168 1.74 0.0965 0.242 0.2896 0.387 0.3861 0.628 0.2413 0.387 0.4343 0.725 0.579 1.112 0.4826 1.015 0.9169 1.981 1.3993 2.996 0.241 0.532 0.579 1.015 0.869 1.498 0.241 0.338 0.386 0.725 0.579 1.063 0.579 1.16 1.11 2.32 1.592 3.528 0.145 0.338 0.29 0.725 0.434 1.063 0.049 0.097 0.049 0.193 0.193 0.193 0.097 0 0.145-0.096 0.194-0.193 0.144-0.338 0.289-0.628 0.482-0.966 0.434-0.87 1.013-1.498 1.979-1.692 0.53-0.096 1.254 0.387 1.447 0.87 0.29 0.918 0.241 1.837 0.145 2.755-0.048 0.966-0.048 1.981-0.145 2.948 0 0.145 0 0.338 0.048 0.483 0.145 0.483 0.29 1.015 0.483 1.498 0.386 1.111 0.482 2.271 0.386 3.431-0.048 0.628-0.29 1.16-0.579 1.74-0.145 0.29-0.145 0.531-0.097 0.821 0.145 0.483 0.193 1.015 0.242 1.498 0.048 0.435 0.241 0.774 0.434 1.112 0.145 0.241 0.434 0.338 0.772 0.241 0.29-0.096 0.531-0.241 0.772-0.386 0.82-0.483 1.689-0.87 2.606-1.112 0.531-0.145 1.013-0.386 1.496-0.58 0.82-0.338 1.544-0.821 2.364-1.159 0.628-0.29 1.303-0.484 1.93-0.822 0.966-0.531 2.027-0.87 3.041-1.401 0.579-0.29 1.206-0.532 1.833-0.774 0.435-0.145 0.821-0.338 1.207-0.579 0.193-0.097 0.337-0.097 0.434 0.096 0.193 0.29 0.386 0.58 0.531 0.87 0.096 0.145 0.048 0.29-0.097 0.338-0.627 0.29-1.254 0.629-1.882 0.919-0.917 0.434-1.882 0.773-2.799 1.256-0.53 0.29-1.061 0.435-1.592 0.628-1.11 0.435-2.22 0.918-3.378 1.353-0.724 0.29-1.496 0.532-2.22 0.87-0.675 0.29-1.351 0.58-2.026 0.918-0.241 0.145-0.531 0.242-0.772 0.339-0.29 0.096-0.338 0.193-0.242 0.483 0.242 0.773 0.628 1.45 0.917 2.223 0.386 1.063 0.917 2.03 1.448 3.044 0.048 0.145 0.145 0.29 0.193 0.435 0.289 1.112 0.869 2.127 1.351 3.19 0.097 0.193 0.145 0.386 0.241 0.58 0.049 0.145 0.145 0.193 0.29 0.096 0.386-0.193 0.772-0.338 1.158-0.531 0.917-0.435 1.785-0.87 2.751-1.16 1.592-0.435 3.184-0.918 4.777-1.353 0.724-0.193 1.399-0.338 2.123-0.483 0.241-0.049 0.386-0.145 0.482-0.435 0.338-0.967 0.724-1.933 1.062-2.9 0.193-0.58 0.483-1.063 0.869-1.546 0.482-0.58 1.061-1.063 1.785-1.257 0.097 0 0.145-0.048 0.241-0.096 0.29-0.145 0.29-0.194 0.193-0.532-0.144-0.435-0.193-0.87-0.386-1.305-0.048-0.145-0.144-0.338-0.241-0.483-0.531-0.677-0.772-1.498-1.255-2.223-0.482-0.725-0.868-1.45-1.302-2.175-0.531-0.869-1.11-1.739-1.738-2.561-0.579-0.773-1.302-1.45-1.737-2.271-0.434-0.387-0.675-0.918-1.061-1.353-0.049-0.097-0.145-0.145-0.193-0.194-0.869-0.724-1.593-1.546-2.124-2.561-0.289-0.531-0.53-1.111-0.82-1.595-0.241-0.386-0.241-0.869-0.241-1.304v-1.353c0-0.435 0.096-0.822 0.434-1.112 0.145-0.145 0.145-0.242 0.097-0.387-0.049-0.434-0.145-0.869-0.193-1.353-0.145-0.966-0.097-1.933-0.097-2.948v-1.594c0.048-0.677 0.097-1.305 0.29-1.982 0.241-0.869 0.434-1.691 0.627-2.561 0.096-0.338 0.241-0.676 0.386-1.015 0.289-0.628 0.386-1.304 0.772-1.836 0.193-0.918 0.917-1.45 1.351-2.223 0.29-0.58 0.772-1.015 1.158-1.498s0.821-0.918 1.303-1.305c0.434-0.338 0.82-0.7247 1.207-1.063 0.193-0.1933 0.434-0.3866 0.675-0.5316 0.724-0.4349 1.351-1.0148 2.075-1.4014 0.193-0.0967 0.386-0.145 0.531-0.29 0.386-0.2416 0.772-0.5316 1.206-0.6765 1.737-0.5799 3.523-0.9182 5.405-0.7732 1.061 0.0966 2.123 0.1933 3.136 0.3382 1.062 0.1933 2.075 0.5316 3.089 0.9665 0.965 0.3866 1.882 0.8216 2.847 1.2082 0.53 0.2416 1.11 0.4832 1.544 0.9665 0.434 0.4832 1.013 0.7253 1.496 1.1593 0.579 0.484 1.254 0.919 1.785 1.499 0.434 0.483 0.869 0.918 1.255 1.449 0.482 0.725 0.965 1.45 1.303 2.223 0.144 0.339 0.386 0.629 0.53 0.967 0.29 0.725 0.531 1.45 0.724 2.174 0.049 0.194 0.145 0.339 0.242 0.532 0.337 0.677 0.53 1.401 0.482 2.175v0.241c0.241 1.885 0.29 3.77 0.097 5.703 0 0.193 0.048 0.386 0 0.58 0 0.096 0 0.145 0.048 0.241 0.338 0.387 0.482 0.87 0.772 1.257 0.145 0.193 0.145 0.386 0.145 0.58 0 0.918-0.097 1.836-0.29 2.754-0.145 0.677-0.386 1.257-0.724 1.836-0.241 0.435-0.579 0.822-0.965 1.112-0.289 0.193-0.627 0.193-0.917 0.29-0.289 0.097-0.53 0.242-0.627 0.532-0.241 0.628-0.579 1.159-0.965 1.691-0.483 0.628-0.772 1.305-1.303 1.885-0.096 0.096-0.193 0.241-0.289 0.338-0.097 0.097-0.193 0.193-0.242 0.338-0.048 0.532-0.337 0.967-0.482 1.498-0.531 1.788-1.014 3.576-1.303 5.413-0.097 0.58-0.193 1.208-0.386 1.788-0.097 0.241 0.048 0.531 0.145 0.773 0.048 0.145 0.241 0.145 0.386 0.145 0.337 0.048 0.627 0.097 0.965 0.145 0.434 0.048 0.82 0.241 1.061 0.628 0.193 0.242 0.386 0.483 0.579 0.677 1.014 1.111 1.834 2.368 2.461 3.721 0.145 0.338 0.338 0.531 0.676 0.676 1.206 0.532 2.413 1.015 3.764 1.208 0.193 0.049 0.338 0.097 0.482 0.194 0.821 0.483 1.738 0.725 2.654 1.063 0.29 0.096 0.579 0.145 0.869 0.193 0.145 0 0.193-0.048 0.29-0.193 0.579-1.305 1.109-2.658 1.64-3.963 0.29-0.628 0.434-1.353 0.531-2.029 0.097-0.822 0.338-1.644 0.531-2.465 0.145-0.87 0.386-1.74 0.531-2.561 0.144-0.725 0.482-1.402 1.206-1.788 0 0 0.048-0.049 0.048-0.049 0.676-0.338 1.834 0.145 2.027 0.87 0.241 0.822 0.289 1.643 0.145 2.513-0.049 0.338 0 0.725-0.097 1.063 0.193 0.049 0.193-0.048 0.241-0.145 0.435-0.966 1.159-1.739 1.738-2.658 0.434-0.725 1.061-1.353 1.592-1.981 0.434-0.58 1.013-1.015 1.448-1.643 0.241-0.338 0.53-0.725 0.772-1.063 0.579-0.725 1.206-1.402 1.833-2.03 0.58-0.628 1.159-1.208 1.689-1.836 0.338-0.387 0.724-0.773 1.158-1.112 0.387-0.338 0.773-0.773 1.159-1.111 0.916-0.822 1.785-1.595 2.702-2.416 0.096-0.097 0.193-0.194 0.289-0.29 0.145-0.145 0.242-0.339 0.435-0.435 0.724-0.532 1.351-1.16 2.026-1.74 0.435-0.387 0.821-0.87 1.303-1.257-0.241-0.241-0.531-0.338-0.82-0.483-0.965-0.58-1.93-1.208-2.895-1.788-0.772-0.483-1.496-0.966-2.268-1.401-0.821-0.483-1.689-0.87-2.51-1.305-0.627-0.338-1.254-0.677-1.882-1.112-0.723-0.483-1.495-0.966-2.219-1.498-0.676-0.435-1.351-0.869-2.075-1.256-0.579-0.338-1.11-0.725-1.689-1.063-1.11-0.677-2.172-1.45-3.378-2.078-0.724-0.387-1.448-0.773-2.123-1.257-0.193-0.145-0.434-0.193-0.676-0.29-0.096-0.048-0.193 0-0.289 0.049-0.772 0.386-1.544 0.725-2.365 1.111-0.241 0.097-0.434 0.29-0.675 0.483-0.628 0.484-1.207 0.967-1.737 1.499-0.531 0.579-1.11 1.111-1.689 1.643-0.386 0.386-0.772 0.773-1.062 1.256-0.048 0.048-0.097 0.097-0.193 0.048-0.048-0.483-0.097-0.966-0.145-1.449 0-0.145 0.048-0.242 0.145-0.339 0.29-0.29 0.531-0.628 0.869-0.87l0.048-0.048c0.627-0.966 1.592-1.546 2.461-2.223 0.724-0.531 1.447-1.063 2.123-1.643 0.241-0.241 0.531-0.386 0.869-0.483 0.337-0.097 0.675-0.29 1.013-0.387 0.338-0.096 0.627-0.096 0.965-0.096 0.145 0 0.29 0.048 0.434 0.145 0.628 0.386 1.303 0.676 1.979 1.063 1.206 0.725 2.461 1.45 3.571 2.319 0.386 0.29 0.82 0.58 1.303 0.822 1.109 0.58 2.171 1.208 3.233 1.836 0.579 0.339 1.158 0.629 1.689 1.015 0.916 0.677 1.93 1.208 2.847 1.885 0.772 0.58 1.688 0.966 2.461 1.45 0.627 0.386 1.206 0.918 1.881 1.256 0.531 0.242 1.062 0.483 1.593 0.773 1.062 0.58 2.123 1.112 3.04 1.933 0.096 0.097 0.145 0.145 0.241 0.242 0.097 0.097 0.097 0.145 0 0.241-0.772 0.629-1.447 1.45-2.268 2.078-0.531 0.435-1.061 0.87-1.64 1.305-0.579 0.484-1.062 1.015-1.545 1.547-0.965 1.063-2.075 2.029-3.184 2.996-1.11 0.966-2.172 1.981-3.233 3.044-0.628 0.629-1.159 1.305-1.738 1.982-0.82 0.966-1.592 1.884-2.412 2.851-0.145 0.145-0.242 0.29-0.386 0.435-0.145 0.145-0.145 0.29 0 0.435 0.289 0.386 0.53 0.821 0.916 1.111 0.242 0.242 0.338 0.532 0.29 0.87-0.097 1.257-0.193 2.561-0.338 3.818-0.048 0.628-0.145 1.208-0.193 1.836-0.048 0.242-0.145 0.435-0.289 0.58-0.917 0.967-1.882 1.933-2.799 2.948-0.772 0.87-1.496 1.788-2.172 2.706-0.193 0.242-0.144 0.628-0.289 0.918-0.048 0.097 0.048 0.145 0.096 0.194 0.097 0.096 0.193 0.193 0.29 0.241 1.062 0.58 1.978 1.402 3.04 2.03 0.917 0.531 1.689 1.256 2.413 2.03 0.096 0.096 0.193 0.241 0.289 0.386 0.048 0.097 0.097 0.193 0.193 0.242 0.676 0.435 1.11 1.111 1.593 1.691 0.386 0.435 0.723 0.918 1.11 1.353 0.337 0.339 0.53 0.773 0.82 1.16 0.675 1.015 1.254 2.126 1.689 3.238 0.386 0.918 0.724 1.836 1.061 2.754 0.097 0.242 0.193 0.484 0.29 0.725 0.724 1.595 1.061 3.286 1.544 4.93 0.048 0.144 0.048 0.289 0.048 0.386-0.048 0.29-0.241 0.532-0.531 0.628-0.289 0.097-0.579-0.048-0.772-0.29-0.096-0.145-0.144-0.29-0.193-0.435-0.096-0.338-0.193-0.676-0.289-1.014-0.386-1.595-0.965-3.142-1.593-4.64-0.53-1.208-0.916-2.464-1.495-3.672-0.193-0.435-0.386-0.919-0.773-1.257-0.482-0.435-0.772-1.015-1.206-1.45-0.145-0.145-0.241-0.29-0.338-0.434-0.434-0.774-1.11-1.45-1.689-2.127-0.627-0.773-1.399-1.401-2.219-1.981-1.11-0.87-2.413-1.45-3.523-2.32-0.531-0.386-1.062-0.821-1.641-1.16-0.82-0.434-1.592-0.869-2.461-1.208-0.627-0.241-1.158-0.58-1.785-0.821-0.724-0.29-1.496-0.532-2.268-0.773-0.386-0.097-0.724-0.242-1.062-0.387-0.241-0.097-0.482-0.242-0.772-0.29-0.337-0.097-0.675-0.242-1.061-0.387-0.676-0.241-1.351-0.483-2.027-0.773-0.772-0.338-1.544-0.676-2.268-1.063-0.145-0.097-0.289-0.242-0.386-0.387-0.627-1.014-1.206-2.029-1.882-2.996-0.386-0.531-0.82-1.015-1.255-1.498-0.096-0.145-0.289-0.193-0.434-0.193-2.364-0.435-4.729-0.725-7.093-0.918-1.255-0.097-2.51-0.145-3.812-0.194-1.448-0.048-2.847 0.097-4.247 0.435-0.724 0.145-1.399 0.339-2.123 0.484-1.013 0.193-1.592 0.773-1.93 1.739-0.29 0.773-0.579 1.547-0.821 2.32-0.241 0.676-0.627 1.305-1.013 1.885-0.096 0.145-0.193 0.241-0.338 0.241-1.351 0.145-2.605 0.628-3.908 0.87-1.544 0.29-2.992 0.918-4.488 1.353-0.579 0.145-1.062 0.387-1.592 0.677-0.242 0.145-0.483 0.241-0.773 0.338-0.772 0.29-1.399 0.773-2.074 1.256-0.628 0.435-1.255 0.87-1.931 1.209-0.434 0.241-0.82 0.531-1.206 0.869-0.627 0.58-1.303 1.112-1.882 1.789-0.29 0.338-0.676 0.579-1.013 0.869-0.917 0.774-1.689 1.595-2.317 2.61-0.144 0.242-0.289 0.435-0.482 0.58-0.386 0.29-0.627 0.676-0.82 1.111-0.773 1.788-1.448 3.576-2.124 5.413-0.096 0.29-0.241 0.628-0.241 0.966 0 0.145-0.048 0.29-0.145 0.435-0.482 0.918-0.82 1.885-1.061 2.9-0.145 0.628-0.338 1.208-0.531 1.836-0.048 0.145-0.145 0.338-0.241 0.483-0.193 0.242-0.5312 0.339-0.8207 0.242s-0.4343-0.338-0.4825-0.677c0-0.145 0-0.241 0.0482-0.386 0.2413-0.967 0.4826-1.982 0.7238-2.948 0.0965-0.483 0.2892-0.967 0.4342-1.401 0.338-0.919 0.579-1.885 0.724-2.9 0.096-0.532 0.145-1.111 0.338-1.595 0.144-0.386 0.144-0.773 0.144-1.16 0-0.773 0.049-1.546 0.049-2.319 0-1.353 0.096-2.706 0.145-4.059v-1.16c-0.049-0.725 0.048-1.45 0.048-2.175 0.048-1.401 0.048-2.803 0.145-4.204 0.096-1.547-0.049-3.093 0.048-4.688 0.096-1.353 0.048-2.754 0.096-4.107 0.049-1.257 0-2.513-0.193-3.77-0.144-0.918-0.482-1.788-1.061-2.561-0.386-0.483-0.676-1.015-0.9172-1.546-0.1447-0.339-0.386-0.677-0.579-0.967-0.2896-0.387-0.4343-0.822-0.4826-1.305-0.1447-1.256-0.1447-2.513-0.0965-3.769 0.0965-1.402 0.0965-2.803 0-4.156-0.0482-0.483-0.0482-0.967-0.0482-1.45 0-0.242 0.0965-0.435 0.2895-0.58 0.0965-0.096 0.193-0.145 0.2895-0.241 0.193-0.194 0.3378-0.435 0.2413-0.725-0.2895-0.629-0.5308-1.257-0.8203-1.885-0.2896-0.532-0.6274-1.063-0.8686-1.643-0.0965-0.242-0.193-0.435-0.2896-0.677-0.2895-0.725-0.6755-1.353-1.1098-1.981-0.5791-0.821-1.2064-1.691-1.6889-2.61-0.4343-0.869-1.0616-1.594-1.5442-2.464-0.8686-1.498-1.8337-2.851-2.7988-4.253-0.09647-0.145-0.33775-0.241-0.24124-0.531 0.048256-0.194 0.14477-0.339 0.28953-0.435 0.77211-0.484 1.5924-0.87 2.4127-1.16 1.3029-0.435 2.461-1.112 3.6674-1.788 1.1581-0.6283 2.268-1.3049 3.3778-1.9331 0.5312-0.29 1.1102-0.5316 1.6892-0.7249 1.303-0.4833 2.509-1.1115 3.715-1.788 0.579-0.3383 1.158-0.58 1.738-0.9182 0.675-0.3866 1.351-0.7249 2.074-1.0632 0.483-0.2416 0.966-0.5316 1.496-0.8215 0.531-0.29 1.062-0.4833 1.593-0.7732 0.627-0.29 1.206-0.7249 1.833-1.0149 0.483-0.19326 0.966-0.43489 1.448-0.67651 0.145-0.04833 0.241-0.14498 0.338-0.24163 0.241-0.14497 0.434-0.1933 0.675-0.048324 0.435 0.28995 0.821 0.62823 1.11 1.0149 0.435 0.5799 0.917 1.1598 1.351 1.7397 1.303 1.643 2.365 3.4311 3.378 5.2191 0.097 0.2416 0.242 0.4349 0.435 0.6282 0.337 0.435 0.579 0.9666 0.916 1.4016 0.097 0.145 0.049 0.29-0.048 0.386 0.145 0.145-0.145 0.339-0.434 0.629zm-1.206 12.178c0 1.111-0.049 1.981 0 2.803 0.048 0.773 0.289 1.546 0.241 2.319 0 0.097 0.048 0.193 0.048 0.29 0.338 1.692 0.82 3.383 1.351 5.026 0.193 0.58 0.338 1.111 0.676 1.643 0.193 0.29 0.434 0.58 0.579 0.87 0.724 1.353 1.64 2.658 2.509 3.914 0.531 0.773 1.206 1.498 1.93 2.127 0.193 0.193 0.386 0.386 0.531 0.628 0.048 0.096 0.097 0.193 0.193 0.241 0.434 0.339 0.772 0.774 1.255 1.064 0.531 0.338 1.11 0.676 1.689 0.918 0.144 0.048 0.289 0.145 0.434 0.241 0.627 0.339 1.255 0.532 1.93 0.629 0.483 0.048 0.965 0.048 1.496 0.048 1.013 0 1.978-0.145 2.992-0.387 0.675-0.145 1.303-0.483 1.978-0.725 0.097-0.048 0.193-0.096 0.29-0.193 0.145-0.096 0.289-0.193 0.482-0.241 1.158-0.58 2.268-1.209 3.185-2.127 0.483-0.531 1.062-0.918 1.544-1.498 0.193-0.29 0.435-0.531 0.676-0.773 0.868-0.87 1.737-1.643 2.461-2.61 0.145-0.145 0.241-0.338 0.386-0.483 0.241-0.29 0.434-0.58 0.579-0.918 0.289-0.725 0.627-1.402 0.917-2.126 0.289-0.629 0.579-1.257 0.82-1.933 0.338-1.112 0.531-2.223 0.917-3.287 0.048-0.145 0.048-0.289 0.048-0.386 0.048-0.918 0.145-1.788 0.145-2.706 0.048-0.87 0.096-1.74-0.097-2.61-0.096-0.387 0-0.821-0.144-1.208-0.097-0.387-0.193-0.725-0.29-1.112-0.096-0.434-0.193-0.869-0.386-1.304-0.193-0.387-0.289-0.774-0.386-1.16-0.096-0.338-0.193-0.677-0.434-0.918-0.531-0.725-0.917-1.498-1.4-2.272-0.096-0.193-0.193-0.386-0.337-0.483-0.338-0.29-0.628-0.676-0.869-1.015-0.193-0.29-0.434-0.58-0.724-0.821-0.193-0.145-0.338-0.29-0.482-0.483-0.242-0.339-0.579-0.58-0.917-0.822-0.193-0.097-0.386-0.242-0.531-0.338-0.772-0.532-1.448-1.1118-2.316-1.4984-0.869-0.3866-1.689-0.7248-2.606-0.9665-0.482-0.0966-0.965-0.1933-1.399-0.4349-0.531-0.29-1.11-0.3866-1.689-0.3866-0.724 0-1.4-0.0483-2.123-0.0967-1.545-0.0966-3.089 0.145-4.536 0.7249-1.834 0.7249-3.33 1.9812-4.826 3.1892-0.482 0.387-0.917 0.87-1.399 1.208-0.724 0.532-1.158 1.305-1.593 2.078-0.482 0.87-0.82 1.837-1.303 2.755-0.53 0.966-0.868 2.03-1.158 3.093-0.048 0.145-0.096 0.29-0.048 0.435-0.145 0.87-0.289 1.594-0.289 2.078zm-18.482 47.987c0.289-0.483 0.531-0.87 0.772-1.257 0.434-0.773 0.917-1.498 1.496-2.174 1.206-1.353 2.557-2.513 3.909-3.721 0.772-0.677 1.64-1.305 2.461-1.885 0.386-0.29 0.82-0.628 1.254-0.87 0.338-0.193 0.386-0.338 0.241-0.773-0.144-0.435-0.337-0.822-0.482-1.257-0.386-1.159-0.82-2.319-1.255-3.431-0.386-1.015-0.868-2.029-1.303-3.044-0.241-0.628-0.579-1.16-0.772-1.837-0.048-0.145-0.096-0.289-0.144-0.434-0.049-0.194-0.145-0.29-0.386-0.242-0.194 0.048-0.338 0.048-0.531 0.048-0.386 0-0.483-0.096-0.579-0.483-0.097-0.483-0.193-0.967-0.338-1.45-0.193-0.628-0.338-1.256-0.483-1.933-0.048-0.29-0.048-0.531 0.097-0.773 0.193-0.338 0.289-0.725 0.338-1.111 0.193-0.919 0.193-1.837 0.193-2.755 0-0.677-0.145-1.256-0.435-1.836-0.096-0.194-0.144-0.339-0.144-0.532-0.097-0.677-0.145-1.305-0.097-1.981 0-1.208 0.193-2.368 0.097-3.576 0-0.097 0-0.242 0.048-0.339 0.048-0.193 0-0.386-0.097-0.58-0.096-0.241-0.434-0.338-0.675-0.145-0.29 0.242-0.579 0.484-0.772 0.822-0.242 0.483-0.435 0.966-0.724 1.45-0.483 0.918-0.627 1.884-0.82 2.899 0 0.145-0.049 0.29-0.097 0.435-0.048 0.097-0.096 0.145-0.193 0.145s-0.145-0.048-0.193-0.145c0-0.048-0.048-0.096-0.048-0.145-0.097-0.483-0.338-0.918-0.531-1.401-0.241-0.58-0.531-1.16-0.724-1.74s-0.482-1.063-0.675-1.643c-0.387-0.918-0.773-1.788-1.207-2.658-0.048-0.145-0.145-0.242-0.289-0.242-0.193 0-0.242 0.097-0.29 0.242-0.0482 0.193-0.1447 0.435-0.0482 0.628 0.1452 0.58 0.1452 1.16 0.1452 1.74v3.624c0 0.58 0.048 1.16 0 1.788-0.049 0.532 0 1.064 0.337 1.547 0.049 0.048 0.049 0.145 0.097 0.193 0.579 0.918 1.11 1.837 1.689 2.755 0.386 0.628 0.82 1.256 1.013 2.029 0.048 0.242 0.145 0.484 0.241 0.725 0.145 0.339 0.193 0.677 0.193 1.015 0.049 1.788-0.048 3.625-0.048 5.413 0 0.821 0.048 1.594-0.048 2.416-0.097 1.45-0.097 2.851-0.048 4.301 0.048 1.256 0.193 2.464 0.241 3.721 0.048 1.256 0.096 2.464 0 3.721-0.097 1.401-0.193 2.851-0.434 4.253 0 0.096 0 0.241 0.048 0.483zm64.613-23.245c0-0.29 0.048-0.531 0.048-0.821s-0.144-0.483-0.386-0.58c-0.241-0.097-0.482 0-0.627 0.145-0.193 0.193-0.29 0.386-0.386 0.628-0.193 0.725-0.386 1.498-0.483 2.271-0.048 0.822-0.241 1.643-0.241 2.465 0 0.58-0.096 1.111-0.241 1.691-0.193 0.822-0.579 1.595-0.869 2.368-0.386 0.918-0.82 1.837-1.254 2.755-0.242 0.58-0.145 0.628 0.289 0.821 0.145 0.049 0.29 0.145 0.386 0.194 0.483 0.338 1.014 0.58 1.593 0.773 0.627 0.193 0.627 0.241 1.061-0.29l0.049-0.048c0.627-0.822 1.254-1.643 1.978-2.368 0.338-0.387 0.676-0.774 1.013-1.16 0.483-0.532 0.965-1.112 1.544-1.595 0.628-0.531 0.966-1.256 1.062-2.03 0.097-0.724 0.097-1.449 0.193-2.174 0.097-0.677 0.097-1.353 0.29-1.982 0.048-0.193 0.048-0.338-0.145-0.483-0.145-0.096-0.29-0.241-0.434-0.386-0.242-0.194-0.435-0.194-0.676 0.048-0.048 0.048-0.097 0.097-0.145 0.193-0.434 0.58-0.868 1.16-1.254 1.788-0.628 0.967-1.4 1.837-2.027 2.851-0.097 0.145-0.193 0.29-0.338 0.242-0.193-0.048-0.289-0.193-0.338-0.387 0-0.096-0.048-0.144 0-0.241 0-0.483 0-0.918 0.049-1.402 0.096-1.208 0.193-2.223 0.289-3.286zm-20.315-4.881c-0.097 0.097-0.145 0.097-0.145 0.145-0.338 0.629-0.82 1.064-1.399 1.402-0.145 0.096-0.29 0.193-0.435 0.29-0.723 0.483-1.447 1.015-2.219 1.353-0.965 0.387-1.834 0.87-2.896 0.966-1.592 0.194-3.184 0.29-4.777 0.242-1.11-0.048-2.171-0.29-3.185-0.58-0.434-0.145-0.868-0.338-1.303-0.531-0.048 0.096-0.048 0.145 0 0.193 0.193 0.531 0.387 1.111 0.628 1.595 0.145 0.338 0.193 0.724 0.482 0.966 0.049 0.048 0.049 0.145 0.049 0.193 0.048 0.387 0.048 0.387 0.434 0.29 0.096 0 0.145-0.048 0.241-0.048 1.4-0.29 2.847-0.532 4.295-0.532 1.785 0 3.619 0.145 5.404 0.29 1.11 0.097 2.22 0.242 3.378 0.387 0.193 0.048 0.29-0.048 0.386-0.242 0.193-0.435 0.29-0.869 0.338-1.304 0.097-0.532 0.145-1.112 0.29-1.643 0.144-0.629 0.241-1.209 0.289-1.837 0-0.29 0.048-0.58 0.145-0.87 0-0.096 0.145-0.386 0-0.725zm7.914-12.468v-0.676c0-0.29-0.193-0.435-0.435-0.435-0.289 0-0.241 0.193-0.289 0.338s-0.048 0.29-0.048 0.387c0 0.338-0.097 0.628-0.242 0.918-0.386 0.918-0.724 1.788-1.013 2.755-0.097 0.338 0.048 0.531 0.434 0.483 0.435-0.048 0.676-0.338 0.869-0.677 0.434-0.966 0.724-1.981 0.724-3.093zm-32.621 4.688c0-0.145 0-0.193-0.048-0.242-0.145-0.483-0.434-0.966-0.627-1.449-0.434-1.015-0.917-1.982-1.062-3.093 0-0.097-0.048-0.193-0.145-0.242-0.096 0-0.193 0.049-0.241 0.194-0.048 0.096-0.048 0.193-0.096 0.289-0.049 0.339-0.049 0.629 0 0.967 0.144 0.87 0.53 1.643 1.013 2.368 0.29 0.483 0.627 0.918 1.206 1.208z"/>
</svg>