<svg xmlns="http://www.w3.org/2000/svg">
	<path id="Shape" d="m22.68 57.024c-0.483 0.242-1.014 0.532-1.496 0.676-0.193 0.049-0.241 0.145-0.193 0.387 0.338 1.015 0.627 1.981 0.965 2.996 0.386 1.208 0.724 2.417 1.11 3.625 0.289 0.966 0.579 1.981 0.917 2.948 0.193 0.628 0.386 1.256 0.53 1.884 0.242 0.773 0.435 1.498 0.676 2.271 0.193 0.58 0.434 1.209 0.579 1.789 0.145 0.628 0.386 1.208 0.531 1.836 0.048 0.145 0.096 0.29 0.193 0.435 0.048 0.096 0.145 0.096 0.241 0.048 0.531-0.241 1.062-0.435 1.544-0.676 0.772-0.339 1.544-0.677 2.365-1.015 0.675-0.29 1.399-0.58 2.075-0.918 0.868-0.387 1.689-0.774 2.557-1.112 1.062-0.435 2.123-0.918 3.233-1.401 0.965-0.435 1.931-0.87 2.896-1.305 0.723-0.29 1.399-0.628 2.171-0.918 1.303-0.435 2.509-1.063 3.812-1.595 0.821-0.338 1.641-0.773 2.509-1.112 0.917-0.386 1.786-0.821 2.703-1.159 0.531-0.194 1.11-0.532 1.64-0.774 0.628-0.29 1.303-0.579 1.979-0.821 0.579-0.242 1.158-0.483 1.737-0.725 1.062-0.435 2.075-0.918 3.088-1.353 0.965-0.435 1.882-0.87 2.847-1.257 0.628-0.289 1.255-0.579 1.931-0.821 0.386-0.145 0.772-0.29 1.109-0.483 0.772-0.435 1.641-0.725 2.461-1.112 0.676-0.29 1.352-0.58 2.027-0.87 0.483-0.241 1.013-0.435 1.496-0.628 0.531-0.193 1.013-0.435 1.544-0.628 0.434-0.145 0.82-0.338 1.207-0.532 0.579-0.29 1.158-0.483 1.737-0.773 0.531-0.242 1.061-0.483 1.592-0.725 0.483-0.193 0.965-0.435 1.448-0.676 0.675-0.29 1.399-0.58 2.075-0.87 0.482-0.193 0.965-0.435 1.447-0.628 0.965-0.435 1.979-0.822 2.944-1.257 0.193-0.097 0.289-0.193 0.145-0.435-0.386-0.725-0.724-1.45-1.11-2.126-0.531-1.015-1.014-1.981-1.593-2.948-0.193-0.29-0.289-0.58-0.434-0.918-0.241-0.628-0.627-1.16-0.965-1.74-0.193-0.338-0.338-0.676-0.483-1.015-0.337-0.725-0.772-1.401-1.109-2.174-0.338-0.725-0.724-1.353-1.062-2.078-0.193-0.435-0.483-0.87-0.724-1.305-0.241-0.387-0.434-0.822-0.675-1.208-0.097-0.145-0.145-0.145-0.29-0.097-1.206 0.483-2.413 0.918-3.619 1.402-0.627 0.241-1.255 0.628-1.882 0.966-0.531 0.29-1.062 0.435-1.641 0.628-0.53 0.194-1.061 0.339-1.544 0.58-0.193 0.097-0.434 0.193-0.627 0.29-0.965 0.483-1.979 0.87-2.944 1.305-0.579 0.242-1.206 0.435-1.833 0.676-0.917 0.435-1.882 0.774-2.799 1.16-0.676 0.29-1.351 0.532-2.027 0.822-0.386 0.145-0.724 0.338-1.11 0.483-0.241 0.097-0.53 0.193-0.772 0.29-0.579 0.242-1.11 0.532-1.689 0.773-0.675 0.338-1.399 0.58-2.075 0.967-0.434 0.241-0.868 0.386-1.303 0.628-0.53 0.29-1.109 0.483-1.688 0.725-0.483 0.193-0.966 0.386-1.4 0.628-0.193 0.097-0.482 0.145-0.724 0.29v-1.305c0-0.386 0.049-0.773 0.049-1.208 0-0.145 0.048-0.193 0.144-0.242 1.352-0.483 2.606-1.208 4.006-1.691 0.82-0.29 1.592-0.676 2.412-1.015 1.448-0.58 2.847-1.208 4.295-1.788 0.965-0.386 1.882-0.87 2.847-1.208 0.772-0.242 1.448-0.628 2.22-0.918 0.579-0.242 1.158-0.483 1.737-0.725 0.338-0.145 0.724-0.29 1.061-0.435 0.58-0.242 1.159-0.531 1.738-0.725 0.579-0.241 1.158-0.531 1.689-0.773 1.013-0.435 2.026-0.918 3.04-1.305 1.206-0.483 2.412-0.966 3.619-1.498 0.627-0.29 1.254-0.628 1.93-0.821 1.062-0.387 2.075-1.015 3.136-1.305 0.821-0.242 1.545-0.677 2.365-0.87 0.096-0.048 0.193-0.097 0.29-0.145 0.193-0.097 0.241-0.193 0.144-0.435-0.241-0.58-0.579-1.063-0.82-1.595-0.048-0.048-0.097-0.145-0.097-0.193-0.048-0.628-0.434-1.111-0.723-1.595-0.435-0.676-0.869-1.401-1.352-2.078-0.337-0.483-0.627-1.015-0.868-1.546-0.241-0.58-0.676-1.015-1.013-1.547-0.145-0.241-0.242-0.483-0.387-0.724-0.096-0.194-0.193-0.194-0.386-0.145-0.675 0.241-1.351 0.676-2.074 0.773-0.097 0-0.242 0.048-0.338 0.096-0.579 0.387-1.255 0.532-1.834 0.822-0.724 0.338-1.448 0.628-2.171 0.918-0.869 0.387-1.738 0.725-2.606 1.063-0.724 0.29-1.448 0.629-2.172 1.015-0.289 0.145-0.627 0.242-0.965 0.387-0.579 0.193-1.061 0.483-1.64 0.676-0.724 0.242-1.352 0.629-2.075 0.87-0.676 0.242-1.352 0.58-1.979 0.87-0.724 0.29-1.447 0.58-2.123 0.87-0.869 0.338-1.689 0.725-2.558 1.111-1.061 0.435-2.074 0.87-3.136 1.305-0.676 0.29-1.351 0.532-1.979 0.87-0.289 0.145-0.579 0.193-0.868 0.338-0.579 0.242-1.11 0.58-1.689 0.725-1.062 0.193-1.93 0.725-2.799 1.257-0.386 0.193-0.772 0.338-1.158 0.483-0.531 0.193-1.062 0.483-1.592 0.676-0.628 0.242-1.255 0.484-1.882 0.725-0.483 0.194-0.965 0.435-1.496 0.629-0.386 0.145-0.724 0.29-1.11 0.483-0.772 0.386-1.592 0.29-2.413 0.241-0.724-0.048-1.447-0.096-2.171-0.048h-0.338c0.338-0.145 0.579-0.29 0.869-0.386 1.061-0.435 2.075-0.87 3.136-1.354 0.676-0.29 1.303-0.58 1.979-0.869 0.82-0.339 1.592-0.677 2.364-1.015 0.483-0.194 1.013-0.435 1.496-0.629 0.917-0.338 1.785-0.773 2.702-1.111 0.628-0.242 1.255-0.532 1.882-0.822 0.724-0.289 1.496-0.628 2.22-0.918 0.868-0.386 1.737-0.725 2.654-1.111 0.675-0.29 1.351-0.58 2.027-0.87 0.53-0.193 1.013-0.435 1.544-0.628 1.206-0.484 2.364-0.967 3.571-1.45 0.53-0.193 1.013-0.483 1.544-0.677 1.206-0.483 2.364-1.063 3.571-1.546 0.723-0.29 1.447-0.628 2.219-0.918 0.965-0.387 1.882-0.87 2.799-1.208 0.097-0.049 0.193-0.097 0.29-0.097 0.627-0.145 0.868-0.628 0.53-1.208-0.337-0.628-0.675-1.305-1.109-1.885-0.676-0.966-1.255-2.029-1.738-3.093-0.144-0.338-0.337-0.628-0.579-0.918-0.434-0.58-0.772-1.16-1.061-1.836-0.386-0.967-1.014-1.8365-1.544-2.7064-0.435-0.6282-0.869-1.2564-1.352-1.8364-0.289-0.3866-0.482-0.8698-0.723-1.3047-0.145-0.29-0.338-0.5316-0.483-0.8699-0.048-0.145-0.193-0.0966-0.289-0.0483-0.773 0.3866-1.641 0.7249-2.461 1.1115-1.207 0.5799-2.461 1.1114-3.716 1.6914-0.917 0.4349-1.882 0.8215-2.847 1.3047-0.724 0.3383-1.399 0.6283-2.123 0.9665-0.531 0.2417-1.062 0.4833-1.641 0.7246-0.579 0.242-1.11 0.484-1.689 0.774-0.579 0.241-1.11 0.483-1.689 0.773-1.206 0.531-2.413 1.063-3.571 1.594-0.82 0.387-1.64 0.725-2.461 1.112-1.303 0.58-2.557 1.16-3.86 1.691-0.869 0.387-1.737 0.774-2.606 1.208-0.434 0.194-0.917 0.387-1.351 0.58-0.579 0.242-1.158 0.532-1.737 0.774-0.676 0.29-1.351 0.579-2.027 0.869-0.627 0.29-1.254 0.58-1.882 0.87-1.158 0.532-2.268 1.015-3.426 1.498-0.724 0.29-1.447 0.629-2.171 0.967-1.255 0.531-2.461 1.111-3.716 1.643-0.772 0.338-1.544 0.725-2.364 1.063-0.917 0.387-1.786 0.822-2.703 1.208-0.53 0.242-1.013 0.484-1.544 0.725-0.241 0.097-0.289 0.29-0.241 0.483 0.338 1.16 0.724 2.32 1.062 3.48 0.337 1.111 0.723 2.174 1.013 3.286 0.338 1.16 0.772 2.32 1.11 3.479 0.096 0.339 0.289 0.629 0.289 0.919h-1.785c-0.145 0-0.193-0.097-0.193-0.194-0.193-0.821-0.531-1.594-0.772-2.416-0.242-0.725-0.483-1.45-0.724-2.223-0.193-0.532-0.29-1.111-0.531-1.595-0.193-0.386-0.241-0.821-0.386-1.208-0.193-0.386-0.145-0.773-0.338-1.16-0.144-0.29-0.096-0.58-0.193-0.87-0.0963-0.289-0.1928-0.531-0.241-0.821 0-0.242-0.193-0.242-0.3378-0.193-0.4343 0.241-0.9168 0.29-1.3994 0.435-0.2413 0.096-0.4825 0.193-0.6756 0.386-0.4343 0.387-0.6273 0.822-0.4825 1.402 0.386 1.691 0.7721 3.334 1.3994 4.977 0.3378 0.918 0.4825 1.885 0.7238 2.851 0.0965 0.29 0.1448 0.58 0.193 0.822 0.0483 0.145 0 0.193-0.1447 0.241-0.5791 0.049-1.1582 0.097-1.7372 0.194-0.1448 0.048-0.193-0.049-0.2413-0.145-0.0482-0.532-0.2413-1.015-0.386-1.498-0.1448-0.532-0.2896-1.063-0.4343-1.595-0.3378-1.015-0.6273-2.03-0.8686-3.045-0.1448-0.579-0.2895-1.159-0.4826-1.691-0.386-0.966-0.4342-2.03 0.0483-3.044 0.1448-0.29 0.3378-0.484 0.6273-0.677 1.3511-0.725 2.7988-1.208 4.1982-1.885 0.627-0.29 1.351-0.483 1.93-0.821 0.917-0.532 1.93-0.773 2.847-1.257 0.531-0.29 1.11-0.483 1.689-0.773 0.386-0.193 0.82-0.338 1.206-0.58 0.483-0.241 1.014-0.386 1.448-0.676 0.483-0.29 1.062-0.435 1.593-0.725 0.386-0.193 0.772-0.387 1.158-0.532 0.434-0.193 0.917-0.338 1.351-0.531 0.434-0.194 0.868-0.387 1.303-0.58 0.82-0.339 1.592-0.773 2.412-1.063 0.435-0.145 0.869-0.387 1.255-0.629 0.676-0.338 1.399-0.628 2.123-0.966 0.579-0.242 1.11-0.532 1.689-0.773 0.386-0.194 0.724-0.387 1.11-0.484 0.145-0.048 0.193-0.145 0.29-0.241 0.434-0.194 0.916-0.29 1.351-0.435 0.337-0.145 0.675-0.338 0.965-0.483 0.289-0.194 0.627-0.339 0.965-0.387 0.289-0.048 0.579-0.145 0.82-0.338 0.965-0.725 2.075-1.16 3.185-1.595 1.255-0.483 2.558-0.918 3.764-1.498 0.917-0.483 1.882-0.87 2.847-1.4016 0.676-0.3866 1.399-0.6282 2.123-0.9665 1.014-0.4832 2.075-0.9181 3.088-1.4014 0.628-0.2899 1.255-0.5316 1.882-0.8699 0.628-0.2899 1.255-0.5799 1.834-0.9181 0.29-0.1933 0.676-0.29 1.013-0.435 0.435-0.1933 0.869-0.4349 1.255-0.6282s0.724-0.5316 1.206-0.4349c0.29-0.29 0.724-0.3383 1.062-0.4833 0.82-0.4349 1.641-0.7732 2.509-1.1598 0.676-0.2899 1.351-0.6765 2.075-0.9182 0.338-0.0966 0.628-0.28992 0.917-0.43489 0.772-0.33828 1.641-0.28996 2.461-0.28996 0.097 0 0.145 0.04833 0.241 0.09665 0.531 0.33828 1.062 0.6282 1.593 0.9665s0.917 0.8699 1.351 1.3531c0.338 0.3866 0.675 0.7732 0.965 1.1598 0.386 0.5799 0.772 1.1598 1.158 1.6914 0.724 1.0632 1.448 2.078 2.123 3.1412 0.435 0.6282 0.869 1.2561 1.303 1.9331 0.434 0.725 0.917 1.353 1.4 2.078 0.579 0.87 1.109 1.74 1.688 2.561 0.531 0.725 1.014 1.45 1.545 2.175 0.482 0.676 0.916 1.45 1.399 2.174 0.434 0.677 0.82 1.402 1.255 2.078 0.434 0.725 0.82 1.45 1.303 2.127 0.53 0.773 1.013 1.546 1.351 2.416 0.241 0.677 0.482 1.401 0.482 2.175 0 0.386-0.145 0.724-0.434 0.966-0.145 0.097-0.29 0.193-0.338 0.387 0 0.096-0.096 0.096-0.145 0.145-0.337 0.193-0.337 0.241-0.193 0.58 0.579 1.159 1.158 2.319 1.834 3.431 0.29 0.483 0.483 0.966 0.772 1.449 0.434 0.774 0.82 1.595 1.255 2.368 0.482 0.822 0.965 1.643 1.399 2.513 0.434 0.822 0.917 1.547 1.351 2.368 0.579 1.015 1.158 1.982 1.689 2.996 0.483 0.919 0.483 1.885 0.193 2.803-0.145 0.532-0.482 0.918-1.013 1.16-1.448 0.58-2.847 1.208-4.295 1.836-0.772 0.339-1.592 0.629-2.364 1.015-1.11 0.532-2.22 1.015-3.33 1.45-1.351 0.532-2.654 1.112-4.005 1.691-0.965 0.387-1.93 0.822-2.895 1.257-0.579 0.29-1.158 0.532-1.786 0.773-0.724 0.242-1.351 0.628-2.075 0.918-0.82 0.339-1.64 0.677-2.461 1.063-1.158 0.532-2.316 1.015-3.474 1.499-0.483 0.241-1.013 0.434-1.544 0.628-0.772 0.29-1.544 0.628-2.316 0.966-0.917 0.387-1.834 0.725-2.751 1.16-0.579 0.29-1.206 0.483-1.834 0.773-0.82 0.387-1.64 0.677-2.461 1.063-0.434 0.194-0.965 0.387-1.399 0.58-0.965 0.435-1.93 0.822-2.895 1.257-0.821 0.386-1.641 0.773-2.51 1.111-0.675 0.242-1.351 0.58-2.026 0.87-1.544 0.58-3.04 1.305-4.536 1.933-0.724 0.29-1.448 0.628-2.22 0.967-0.724 0.338-1.496 0.628-2.22 0.966-0.53 0.242-1.11 0.435-1.64 0.677-0.435 0.193-0.917 0.338-1.351 0.531-1.11 0.484-2.22 0.919-3.33 1.45-0.917 0.387-1.834 0.725-2.751 1.112-0.868 0.338-1.688 0.773-2.509 1.111-0.82 0.338-1.64 0.628-2.413 1.015-1.254 0.676-2.509 0.386-3.763 0.386h-0.097c-0.82-0.483-1.737-0.918-2.364-1.691-0.338-0.386-0.483-0.918-0.628-1.401-0.193-0.725-0.386-1.402-0.627-2.127-0.241-0.773-0.434-1.546-0.676-2.319-0.193-0.532-0.289-1.063-0.482-1.595-0.193-0.58-0.386-1.16-0.483-1.788-0.048-0.338-0.144-0.628-0.241-0.967-0.338-1.304-0.676-2.609-1.062-3.914-0.241-0.87-0.482-1.74-0.723-2.609-0.145-0.387-0.242-0.774-0.483-1.112-0.048-0.097-0.096-0.242-0.048-0.338 0.048-0.532-0.241-0.967-0.338-1.45-0.145-0.87-0.531-1.691-0.724-2.561-0.145-0.58-0.241-1.112-0.482-1.643-0.049-0.097-0.049-0.194 0.096-0.242 0.483-0.145 0.917-0.29 1.4-0.483 0.193-0.049 0.241 0 0.289 0.145 0.483 1.015 0.772 2.126 1.158 3.189 0.338 0.918 0.579 1.837 0.821 2.755 0.193 0.87 0.434 1.74 0.675 2.609 0.483 1.547 0.869 3.093 1.351 4.64 0.29 0.918 0.628 1.884 0.821 2.851 0.144 0.628 0.386 1.305 0.579 1.933 0.241 0.773 0.482 1.546 0.675 2.319 0.241 0.967 0.627 1.837 1.062 2.707 0.096 0.145 0.193 0.241 0.338 0.29 1.109 0.435 2.219 0.386 3.329-0.145 0.241-0.145 0.483-0.242 0.772-0.29 0.241-0.097 0.338-0.242 0.241-0.484-0.241-0.579-0.337-1.208-0.53-1.788-0.29-0.773-0.483-1.594-0.772-2.368-0.145-0.434-0.242-0.918-0.386-1.353-0.29-0.87-0.579-1.788-0.869-2.706-0.338-0.966-0.579-1.933-0.82-2.899-0.29-1.064-0.579-2.127-0.917-3.142-0.241-0.821-0.531-1.643-0.724-2.512-0.048-0.339-0.241-0.629-0.338-0.967-0.048-0.097-0.048-0.097-0.145-0.048-0.337 0.193-0.723 0.338-1.061 0.483-0.579 0.242-1.207 0.338-1.834 0.193-0.386-0.096-0.627-0.435-0.772-0.773-0.241-0.58-0.434-1.111-0.675-1.691-0.145-0.339-0.242-0.677-0.435-0.967-0.386-0.628-0.579-1.305-0.917-1.933-0.096-0.241-0.096-0.386 0.193-0.483 0.338-0.097 0.628-0.29 0.965-0.435 0.145-0.048 0.194-0.097 0.194 0.097 0 0.096 0.048 0.193 0.096 0.29 0.531 1.208 0.917 2.464 1.448 3.624 0.193 0.435 0.386 0.58 0.868 0.387 0.242-0.097 0.531-0.194 0.676-0.435 0.048-0.097 0.096-0.097 0.193-0.097 1.303 0.338 2.75 0.338 4.15 0.435zm69.535-10.487c0.096-0.58-0.097-1.111-0.386-1.594-0.29-0.58-0.627-1.16-0.965-1.74-0.579-1.112-1.207-2.223-1.834-3.335-0.338-0.628-0.675-1.256-1.062-1.933-0.482-0.869-0.965-1.739-1.447-2.609-0.434-0.773-0.82-1.595-1.255-2.416-0.241-0.484-0.482-0.967-0.772-1.402-0.096-0.145-0.241-0.193-0.338-0.145-0.144 0.097-0.337 0.145-0.53 0.242-0.531 0.338-1.11 0.58-1.689 0.821-0.338 0.145-0.676 0.242-1.014 0.339-0.241 0.096-0.337 0.193-0.193 0.435 0.193 0.338 0.29 0.676 0.483 0.966 0.434 0.773 0.82 1.546 1.206 2.32 0.241 0.483 0.483 0.966 0.772 1.449 0.435 0.725 0.724 1.547 1.158 2.272 0.193 0.29 0.242 0.676 0.435 0.966 0.386 0.628 0.627 1.305 1.013 1.885 0.483 0.87 0.965 1.74 1.399 2.609 0.242 0.484 0.483 0.967 0.724 1.45 0.242 0.483 0.483 1.015 0.772 1.498 0.097 0.194 0.193 0.194 0.386 0.145 0.917-0.338 1.786-0.773 2.703-1.16 0.193-0.096 0.289-0.193 0.337-0.434 0.097-0.145 0.097-0.387 0.097-0.629zm-25.334-43.638c-0.048 0-0.048 0.0483-0.096 0.0483-0.435 0.0484-0.821 0.3383-1.207 0.4833-0.338 0.145-0.338 0.1933-0.144 0.4833 0.386 0.6282 0.675 1.3047 1.109 1.8846 0.242 0.3383 0.435 0.6766 0.628 1.0149 0.53 0.8215 0.917 1.7397 1.447 2.5612 0.531 0.8219 1.11 1.6429 1.496 2.5609 0.145 0.242 0.29 0.484 0.435 0.725 1.254 1.837 2.412 3.77 3.715 5.606 0.434 0.628 0.386 0.628 1.062 0.338 0.579-0.29 1.11-0.725 1.737-0.918 0.434-0.145 0.82-0.338 1.158-0.58 0.193-0.145 0.338-0.29 0.193-0.483-0.338-0.628-0.676-1.257-1.062-1.836-1.013-1.45-1.93-2.948-2.991-4.35-1.351-1.7394-2.654-3.5275-3.957-5.3155-0.386-0.5316-0.821-1.0632-1.158-1.6431-0.386-0.6765-1.207-1.0148-1.931-0.6765-0.096 0.0966-0.241 0.2416-0.434 0.0966z"/>
	<path id="Shape" d="m44.008 56.734h-2.605c-0.435 0-0.917 0-1.352-0.097-0.241-0.048-0.53 0-0.772 0.049-0.53 0.048-1.061 0-1.592 0-0.434 0-0.82 0.048-1.255 0.048-0.675 0-1.351 0.048-2.026-0.097-0.338-0.048-0.676-0.048-1.062 0-0.482 0.097-0.917-0.048-1.351-0.048-0.097 0-0.241-0.048-0.338-0.048-1.11 0.048-2.22 0-3.329 0.048-1.834 0.097-3.668-0.097-5.501-0.242-1.448-0.096-2.896-0.096-4.343-0.193-0.29 0-0.483-0.145-0.628-0.387-0.144-0.241-0.338-0.531-0.531-0.773-0.482-0.58-0.868-1.256-1.254-1.933-0.386-0.725-0.724-1.546-1.207-2.223-0.096-0.145-0.241-0.29-0.386-0.435-0.193-0.241-0.386 0-0.579 0.049-0.144 0-0.048 0.145-0.048 0.241 0.048 0.339 0.097 0.725 0.048 1.112-0.096 0.531-0.386 0.821-0.82 0.966-0.627 0.194-1.206 0.435-1.834 0.629-0.193 0.048-0.386 0.144-0.579 0.241-0.53 0.29-1.1095 0.29-1.6404 0.242-0.5308-0.049-0.8203-0.339-0.9168-0.87-0.0965-0.773 0-0.677-0.7721-0.532-0.579 0.145-1.1581 0.194-1.7371 0.242-0.2896 0.048-0.6274 0-0.9169-0.048-0.7238-0.145-1.3994-0.242-2.0749-0.532-0.3861-0.145-0.6274-0.532-0.8686-0.87-0.6273-0.821-0.91687-1.788-1.0616-2.803-0.04829-0.29-0.09654-0.58-0.1448-0.87-0.19302-0.676-0.09651-1.353 0.04826-1.981 0.04825-0.241 0.14476-0.531 0.14476-0.773 0.04826-0.193 0.09651-0.435 0.24128-0.532 0.386-0.338 0.6756-0.773 1.0616-1.111 0.6273-0.532 1.3511-0.87 2.075-1.208 0.9651-0.435 1.9301-0.628 2.9435-0.967 1.9302-0.628 3.9568-0.676 5.9358-0.676 0.868 0 1.785-0.145 2.654 0 0.241 0.048 0.53-0.097 0.772-0.097 0.096 0 0.144-0.048 0.193-0.145 0.241-0.483 0.675-0.87 0.916-1.353 0.29-0.532 0.676-1.063 1.207-1.401 0.096-0.049 0.145-0.097 0.241-0.097 0.869-0.048 1.737-0.145 2.606-0.29 0.193-0.048 0.434 0 0.627 0 0.483-0.048 0.965-0.145 1.448-0.145 0.868-0.097 1.785-0.145 2.654-0.193 1.013-0.049 2.075-0.049 3.088-0.049 2.075-0.048 4.15 0 6.273 0.049h2.124c0.434 0 0.916 0.096 1.351 0.145 0.337 0.048 0.675 0.048 1.013 0.096 0.483 0.049 0.965 0.097 1.496 0.097s1.061 0.097 1.544 0.048c0.386 0 0.772 0.097 1.11 0.097 0.482 0 0.917 0.048 1.351 0.048s0.869 0.097 1.303 0.145c0.048 0 0.145 0.049 0.193 0.049 0.434 0 0.82 0.338 0.82 0.821 0 0.145 0.049 0.29 0.097 0.435 0.241 0.435 0.096 0.918 0.145 1.353 0 0.435-0.049 0.822-0.049 1.257 0 0.869-0.048 1.739 0 2.609 0.097 0.967-0.048 1.885-0.048 2.851 0 0.822 0 1.643-0.048 2.417-0.048 0.579 0 1.159-0.048 1.739-0.097 0.87-0.097 1.74-0.097 2.61 0 0.29-0.096 0.531-0.193 0.821-0.145 0.532-0.193 1.16-0.386 1.692-0.193 0.435-0.676 0.87-1.206 0.821-0.821-0.145-1.641 0-2.124-0.048zm-11.291-2.32c1.254 0 2.702 0.049 4.15 0.097 2.412 0.097 4.825 0.097 7.286 0 0.338 0 0.724-0.048 1.062-0.097 0.579-0.145 0.82-0.58 0.675-1.159-0.048-0.145-0.048-0.242 0-0.387 0.145-0.628 0.193-1.257 0.242-1.933 0.048-0.435 0.048-0.87 0.048-1.305 0-0.725 0.193-1.45 0.193-2.174 0-0.29-0.048-0.58-0.048-0.87 0.048-0.532 0.144-1.064 0.144-1.595v-1.74c0-0.58-0.048-1.111-0.048-1.691 0-0.677 0-1.353 0.048-2.03 0-0.193-0.096-0.29-0.289-0.338-0.434-0.048-0.82-0.048-1.255-0.145-0.724-0.097-1.399-0.193-2.123-0.242-0.097 0-0.193-0.096-0.29-0.048-0.386 0.193-0.772 0.048-1.109 0.048-0.821-0.048-1.593-0.193-2.365-0.241h-1.254c-1.207 0-2.365 0-3.571-0.049-0.724-0.048-1.4 0.097-2.075 0.097-0.869 0-1.737-0.048-2.606-0.048-1.013 0-1.979-0.049-2.992 0.048-0.434 0.048-0.868 0.048-1.254 0.048-0.242 0-0.483 0.049-0.724 0.049-0.579-0.097-1.158 0-1.689 0.048-0.772 0.097-1.593 0.097-2.365 0.242-0.627 0.096-1.158 0.338-1.496 0.918-0.193 0.386-0.434 0.725-0.675 1.063-0.483 0.628-0.917 1.305-1.303 2.03-0.048 0.048-0.193 0.096-0.048 0.241 0.096 0.097 0.193 0.049 0.289 0 0.483-0.193 0.917-0.338 1.351-0.58 0.338-0.193 0.483-0.096 0.676 0.194 0.241 0.435 0.675 0.724 0.965 1.159 0.531 0.919 0.82 1.933 1.062 2.948 0.048 0.145 0 0.194-0.097 0.242-0.386 0.29-0.82 0.483-1.255 0.725-0.675 0.338-1.254 0.821-1.978 1.111-0.434 0.194-0.869 0.435-1.351 0.58-0.097 0-0.097 0.048-0.048 0.145 0.096 0.145 0.241 0.338 0.337 0.532 0.338 0.676 0.676 1.304 0.966 1.981 0.193 0.435 0.53 0.822 0.772 1.256 0.144 0.29 0.386 0.484 0.675 0.484 0.579 0.048 1.11 0.145 1.689 0.193 2.075 0.193 4.102 0.097 6.177 0.145 1.737 0.097 3.522 0 5.501 0.048zm-25.768-7.345c-0.1448-0.435-0.2413-0.87-0.193-1.305 0-0.193 0.0482-0.338 0.193-0.483 0.2895-0.242 0.579-0.532 1.0133-0.58 0.3378-0.048 0.6756-0.145 0.9651-0.242 0.6756-0.145 1.3509-0.338 2.0749-0.338 0.193 0 0.338 0.048 0.483 0.193 0.193 0.242 0.434 0.435 0.579 0.725 0.048 0.097 0.096 0.145 0.241 0.097 0.627-0.193 1.206-0.532 1.834-0.773 0.096-0.049 0.193-0.145 0.241-0.242 0.289-0.58 0.579-1.111 0.82-1.691 0.049-0.145 0.145-0.29 0.193-0.435 0.049-0.049 0.049-0.145-0.048-0.145-0.29 0-0.627-0.097-0.917-0.049-0.82 0.097-1.689 0.049-2.509 0.194-0.434 0.096-0.917 0.096-1.351 0.145-0.6758 0.096-1.3513 0.193-2.0269 0.241-0.7721 0.097-1.5442 0.242-2.2197 0.532-0.6756 0.29-1.3512 0.58-2.075 0.821-0.2895 0.097-0.579 0.194-0.8203 0.387-0.2895 0.242-0.6273 0.435-0.9169 0.58-0.193 0.097-0.386 0.193-0.4825 0.338-0.2413 0.387-0.2895 0.822-0.2413 1.208 0 0.049 0.0483 0.097 0.0483 0.145 0.3378 0.484 0.7721 0.677 1.3511 0.774 0.9651 0.145 1.882-0.145 2.847-0.145 0.2896 0.145 0.5791 0.096 0.9169 0.048zm-1.2546 4.446c0.0482 0 0.193 0 0.2895-0.048 1.5924-0.339 3.1848-0.629 4.7294-1.112 0.241-0.097 0.337-0.193 0.289-0.435 0-0.048 0-0.145-0.048-0.193-0.145-0.483 0-0.435-0.531-0.29-0.4343 0.096-0.8203 0.29-1.2546 0.435-0.2895 0.096-0.5308-0.049-0.5308-0.387 0-0.29 0.1448-0.483 0.4343-0.531 0.5791-0.145 1.1581-0.339 1.7371-0.532 0.241-0.097 0.483-0.193 0.724-0.242 0.289 0 0.434-0.193 0.724-0.241 0.096 0 0.048-0.049 0.048-0.145-0.29-0.725-0.627-1.45-1.158-2.03-0.241-0.29-0.579-0.531-1.013-0.435-0.6761 0.145-1.3999 0.29-2.0754 0.435-0.1931 0.048-0.2896 0.097-0.1931 0.29 0.0483 0.193 0.0965 0.338 0.1448 0.532 0.0483 0.193 0.0965 0.193 0.2895 0.145 0.5791-0.145 1.1581-0.242 1.7372-0.29 0.145 0 0.241 0 0.338 0.096 0.338 0.242 0.531 0.629 0.579 1.015 0 0.145-0.048 0.29-0.241 0.387-0.145 0.048-0.29 0.048-0.435-0.097-0.048-0.048-0.048-0.145-0.144-0.145-0.5795 0-1.1586 0.048-1.6894 0.242-0.9651 0.338-1.9785 0.676-3.0401 0.628-0.579 0-1.1581 0.097-1.7371 0.097-0.5308 0.048-1.0134-0.049-1.4959-0.339-0.0965-0.048-0.1931-0.096-0.2896-0.048s-0.0482 0.097-0.0482 0.193c0.0965 0.532 0.193 1.112 0.4825 1.595 0.193 0.338 0.3861 0.677 0.7721 0.87 0.7721 0.435 1.6407 0.483 2.6058 0.58zm14.139-5.558c0-0.579-0.435-1.256-1.014-1.546-0.096-0.048-0.241-0.048-0.337 0-0.338 0.097-0.628 0.29-0.966 0.387-1.447 0.531-2.895 1.111-4.342 1.643-0.193 0.096-0.29 0.145-0.145 0.338 0.338 0.677 0.627 1.401 0.772 2.126 0.048 0.194 0.193 0.145 0.289 0.097 0.193-0.048 0.386-0.145 0.531-0.193 0.483-0.194 0.965-0.435 1.448-0.629 0.338-0.145 0.579-0.435 0.917-0.483 0.193-0.048 0.434-0.145 0.627-0.241 0.676-0.29 1.255-0.725 1.93-1.015 0.193-0.049 0.29-0.242 0.29-0.484zm-7.142 4.495h0.048c-0.048-0.435-0.048-0.87-0.096-1.305 0-0.097 0-0.242-0.145-0.193-0.29 0.048-0.531 0.096-0.82 0.193-0.145 0.048-0.193 0.097-0.097 0.242 0.145 0.193 0.193 0.386 0.29 0.579 0.241 0.677-0.049 1.16-0.724 1.305-0.531 0.145-1.11 0.338-1.6408 0.532-0.7238 0.241-0.7238 0.241-0.4826 0.966 0.0483 0.145 0.0966 0.194 0.2413 0.145 0.9171-0.29 1.8821-0.435 2.7501-0.725 0.29-0.096 0.628-0.435 0.628-0.724 0.048-0.339 0.048-0.677 0.048-1.015z"/>
	<path id="Path" d="m7.2382 50.403c-0.3378 0-0.6273-0.29-0.6273-0.628s0.2895-0.58 0.5791-0.58c0.3377 0 0.6273 0.29 0.6273 0.628 0 0.339-0.2896 0.58-0.5791 0.58z"/>
	<path id="Path" d="m5.3563 50.065c0 0.29-0.2413 0.532-0.5308 0.532s-0.5308-0.242-0.5308-0.532 0.2413-0.532 0.5308-0.532 0.5308 0.242 0.5308 0.532z"/>
	<path id="Path" d="m17.758 46.247c0 0.339-0.242 0.629-0.628 0.629-0.337 0-0.627-0.29-0.627-0.629 0-0.338 0.29-0.628 0.627-0.628 0.338 0 0.58 0.29 0.628 0.628z"/>
	<path id="Path" d="m15.538 47.166c0 0.338-0.241 0.579-0.579 0.579s-0.627-0.241-0.627-0.579c0-0.339 0.241-0.58 0.579-0.58 0.386-0.049 0.627 0.241 0.627 0.58z"/>
</svg>