<svg xmlns="http://www.w3.org/2000/svg">
	<path id="Shape" d="m73.975 45.764c-0.386 1.015-0.724 1.981-1.062 2.948-0.29 0.821-0.531 1.643-0.82 2.465-0.193 0.531-0.386 1.111-0.579 1.643-0.097 0.241-0.193 0.531-0.242 0.821-0.096 0.29-0.193 0.58-0.337 0.87-0.338 0.677-0.58 1.353-0.773 2.078-0.241 0.822-0.434 1.691-0.82 2.465-0.193 0.386-0.241 0.773-0.386 1.208-0.048 0.241-0.096 0.483-0.193 0.676-0.482 1.208-0.627 2.465-1.013 3.721-0.29 1.015-0.628 2.078-0.965 3.093-0.242 0.725-0.483 1.498-0.676 2.223-0.048 0.193-0.145 0.387-0.241 0.58-0.193 0.532-0.241 1.063-0.338 1.595-0.048 0.338-0.145 0.628-0.241 0.918-0.193 0.773-0.386 1.546-0.579 2.32-0.145 0.579-0.338 1.111-0.435 1.691-0.048 0.483-0.193 0.966-0.241 1.45 0 0.483-0.193 0.918-0.241 1.401-0.097 0.677-0.29 1.305-0.386 1.981-0.097 0.822-0.29 1.692-0.386 2.513-0.193 1.402-0.338 2.852-0.386 4.301 0 0.435-0.049 0.87-0.097 1.353 0 0.242-0.048 0.532 0 0.774 0.048 0.145-0.048 0.193-0.193 0.193-0.241 0-0.482-0.048-0.772-0.048-0.145 0-0.145-0.097-0.145-0.194-0.096-1.063-0.096-2.126 0.049-3.189 0.096-0.967 0.193-1.933 0.289-2.851 0.097-0.725 0.241-1.45 0.29-2.175 0.048-0.58 0.193-1.111 0.193-1.691 0.048-0.774 0.289-1.547 0.434-2.272 0.096-0.483 0.29-1.014 0.29-1.498 0-0.241 0.096-0.483 0.193-0.725 0.193-1.014 0.434-2.029 0.675-2.996 0.386-1.45 0.579-2.899 1.11-4.301 0.483-1.305 0.676-2.706 1.062-4.059 0.144-0.483 0.289-0.918 0.386-1.402 0.144-0.628 0.337-1.256 0.434-1.884 0.096-0.483 0.289-0.967 0.386-1.498 0.338-1.498 0.869-2.948 1.399-4.398 0.435-1.16 0.724-2.32 1.062-3.528 0.193-0.773 0.434-1.498 0.724-2.223 0.289-0.821 0.531-1.594 0.868-2.416 0.193-0.483 0.386-0.918 0.628-1.353 0.096-0.145 0.144-0.29 0.193-0.387 0.241-0.531 0.144-0.628-0.386-0.821-1.062-0.338-2.075-0.773-2.992-1.353-0.193-0.145-0.434-0.242-0.676-0.29-0.144 0-0.289-0.097-0.434-0.193-0.627-0.532-1.399-0.677-2.123-1.064-0.193-0.096-0.338-0.048-0.435 0.194-0.144 0.29-0.241 0.58-0.289 0.918-0.145 0.531-0.483 0.966-0.676 1.45-0.096 0.241-0.289 0.338-0.482 0.435-0.434 0.193-0.917 0.434-1.351 0.628-0.097 0.048-0.145 0.048-0.242 0.048-1.447 0.145-2.798 0.58-4.198 0.87-0.82 0.145-1.64 0.29-2.412 0.387-0.145 0.048-0.242-0.049-0.242-0.194 0-0.386-0.048-0.821-0.048-1.208 0-0.145 0.096-0.145 0.193-0.145 0.579-0.048 1.206-0.145 1.785-0.193 0.821-0.048 1.641-0.193 2.413-0.338 0.869-0.194 1.689-0.339 2.558-0.629 0.241-0.096 0.386-0.193 0.482-0.435 0.338-0.773 0.676-1.546 1.014-2.319 0.144-0.338 0.144-0.483-0.145-0.725-0.579-0.532-1.207-1.015-1.737-1.595-0.869-0.966-1.689-2.029-2.268-3.189-0.145-0.29-0.145-0.29-0.435-0.097-0.965 0.532-1.93 1.015-2.991 1.208-1.303 0.29-2.558 0.145-3.861 0.097-1.447-0.048-2.75-0.532-4.053-1.063-0.241-0.097-0.435-0.339-0.676-0.387-0.482-0.145-0.917-0.435-1.303-0.773-0.144-0.145-0.241-0.097-0.337 0.097-0.29 0.724-0.676 1.401-1.014 2.078-0.193 0.338-0.338 0.724-0.579 1.063 0.193 0.096 0.386 0.048 0.531 0 0.869-0.145 1.737-0.29 2.654-0.435 0.289-0.049 0.579-0.097 0.869-0.097h2.557c0.241 0 0.434 0.048 0.627 0.145 0.097 0.048 0.145 0.097 0.193 0.193 0.097 0.339 0.29 0.58 0.435 0.822 0.144 0.193 0.241 0.435 0.241 0.676 0.096 0.725 0.241 1.499 0.386 2.223 0.096 0.29 0.096 0.629 0.145 0.967 0.096 0.918 0.338 1.788 0.434 2.658 0.048 0.193 0.145 0.386 0.193 0.531 0.097 0.435 0.097 0.919 0.241 1.354-0.144 0.869 0.145 1.739 0.242 2.609 0.096 0.773 0.193 1.498 0.386 2.271 0.144 0.435 0.096 0.87-0.145 1.305-0.145 0.242-0.241 0.483-0.386 0.677-0.483 0.773-1.158 1.111-2.027 1.16-0.627 0-1.303 0.096-1.93 0.193-0.82 0.096-1.641 0.241-2.413 0.386-0.724 0.145-1.496 0.242-2.268 0.339-0.965 0.096-1.882 0.193-2.799 0.435-0.386 0.096-0.772 0.145-1.158 0.193-0.772 0.097-1.592 0.242-2.364 0.435-0.531 0.097-1.11 0.241-1.641 0.241-0.965 0.049-1.93 0.242-2.895 0.387-0.386 0.048-0.772 0.048-1.158 0.145s-0.483 0.193-0.386 0.628c0.145 0.629 0.193 1.257 0.338 1.885 0.096 0.58 0.096 1.208 0.241 1.836 0.048 0.242 0.096 0.532 0.096 0.774 0.049 0.434 0.097 0.869 0.242 1.256 0.048 0.242 0.144 0.242 0.337 0.097s0.338-0.339 0.483-0.532c0.338-0.58 0.869-0.628 1.303-0.58 0.193 0 0.241 0.145 0.338 0.29 0.482 0.677 0.675 1.45 0.723 2.271 0.049 0.435 0 0.87-0.048 1.305 0 0.242-0.048 0.435-0.193 0.628-0.048 0.097-0.096 0.242-0.145 0.339-0.048 0.145 0 0.338 0 0.483 0 0.242 0.193 0.242 0.29 0.338 0.338 0.29 0.724 0.58 0.917 1.063 0.145 0.339 0.289 0.677 0.386 1.064 0.096 0.386 0 0.676-0.145 0.966-0.048 0.097-0.096 0.193-0.145 0.242-0.145 0.145-0.145 0.29 0 0.386l0.049 0.049c0.482 0.483 0.627 1.063 0.53 1.739-0.048 0.194-0.096 0.339-0.193 0.484-0.096 0.193-0.096 0.338 0.049 0.483 0.53 0.531 0.723 1.208 0.772 1.933 0.048 0.531 0 1.063-0.338 1.498-0.29 0.338-0.338 0.725-0.29 1.16 0.145 0.87-0.241 1.546-0.917 2.078-0.241 0.145-0.434 0.386-0.627 0.531s-0.241 0.339-0.193 0.58c0.193 0.773 0.338 1.547 0.434 2.32 0.049 0.483 0.097 1.015 0.145 1.498 0.048 0.532 0.145 1.063 0.241 1.595 0.049 0.241 0.097 0.531 0.097 0.773 0 0.29 0 0.58 0.145 0.87 0.193 0.483 0.193 1.015 0.338 1.498 0.096 0.338-0.242 0.676-0.58 0.628h-0.048c-0.289-0.048-0.579 0-0.82-0.145s-0.097-0.532-0.145-0.773c-0.193-1.112-0.241-2.271-0.482-3.383-0.145-0.87-0.29-1.74-0.435-2.658-0.096-0.628-0.241-1.305-0.338-1.933-0.048-0.29-0.144-0.338-0.434-0.338-0.434 0-0.868 0.048-1.351 0.048-0.241 0-0.386 0.194-0.289 0.435 0.193 0.628 0.096 1.305 0.241 1.933 0.096 0.532 0.096 1.063 0.241 1.547 0.241 1.063 0.386 2.126 0.627 3.141 0.145 0.58 0.242 1.16 0.242 1.739 0 0.145-0.049 0.242-0.193 0.242-0.386 0-0.821-0.048-1.207-0.048-0.193 0-0.241-0.145-0.289-0.29-0.097-0.628-0.193-1.257-0.29-1.885-0.145-0.966-0.338-1.933-0.482-2.899-0.145-0.967-0.386-1.885-0.386-2.852 0-0.193-0.049-0.386-0.097-0.58-0.048-0.193-0.145-0.289-0.338-0.289-0.289 0-0.627-0.049-0.916-0.049-0.435 0-0.869-0.145-1.207-0.338-0.241-0.145-0.482-0.242-0.724-0.387-0.675-0.29-1.013-0.773-1.206-1.449-0.097-0.29 0.048-0.58 0.193-0.822 0.096-0.193 0.289-0.193 0.531-0.097 0.193 0.097 0.338 0.242 0.482 0.387 0.29 0.338 0.628 0.677 1.062 0.822 0.627 0.193 1.255 0.434 1.93 0.434 1.158 0 2.316 0.049 3.474-0.096 0.483-0.049 0.917-0.194 1.352-0.387 0.048 0 0.048 0 0.096-0.048 0.483-0.435 0.82-0.967 1.013-1.595 0.049-0.193-0.048-0.29-0.289-0.29-0.338 0-0.627-0.048-0.965 0.048-0.097 0.049-0.241 0.049-0.338 0.097-0.531 0.145-0.965-0.048-1.351-0.435-0.097-0.096-0.097-0.241-0.048-0.338 0.144-0.242 0.289-0.435 0.53-0.483 0.242-0.049 0.483-0.097 0.724-0.097 0.435 0 0.917 0 1.351-0.048 0.628-0.049 1.11-0.58 1.062-1.16 0-0.097 0-0.193-0.096-0.29-0.29-0.338-0.58-0.725-1.11-0.628-0.821 0.145-1.689 0.048-2.558 0.145h-0.482c-0.29-0.049-0.483-0.242-0.483-0.532-0.048-0.242 0.097-0.483 0.386-0.58 0.579-0.241 1.206-0.483 1.834-0.386 0.338 0.048 0.675 0.048 1.013 0.048 0.579 0 0.869-0.435 0.724-0.967-0.048-0.096-0.048-0.241-0.097-0.338-0.096-0.338-0.289-0.435-0.627-0.435-0.965 0-1.978 0.097-2.943 0.049-0.242 0-0.483-0.049-0.676-0.242-0.29-0.29-0.193-0.725 0.193-0.822 0.193-0.096 0.386-0.096 0.627-0.096 0.772 0 1.544 0 2.365-0.049 0.434 0 0.675-0.193 0.772-0.579 0.145-0.484-0.193-1.064-0.627-1.257-0.29-0.097-0.579-0.145-0.917-0.145-0.965 0-1.882 0-2.847 0.048-0.821 0.049-1.544-0.193-2.268-0.628-0.097-0.096-0.242-0.145-0.386-0.193-0.145-0.048-0.338-0.048-0.483 0.097-0.675 0.676-1.447 1.256-2.027 2.029-0.772 1.063-1.447 2.223-1.881 3.528-0.145 0.435-0.338 0.821-0.531 1.256-0.242 0.58-0.29 1.209-0.386 1.788-0.145 0.87-0.242 1.74-0.435 2.61-0.193 1.015-0.337 2.03-0.337 3.044-0.049 2.465 0.048 4.978 0.096 7.443 0 0.193 0.097 0.386 0.097 0.628 0 0.29-0.049 0.338-0.338 0.29h-0.145c-0.241-0.049-0.482-0.097-0.675-0.194-0.194-0.144-0.097-0.434-0.145-0.676-0.049-0.29-0.193-0.483-0.29-0.725-0.193-0.677-0.145-1.353-0.193-2.03-0.096-1.884 0.097-3.769 0.241-5.654 0.145-1.401 0.242-2.851 0.531-4.252 0.049-0.242 0.049-0.532 0.097-0.774 0-0.821 0.193-1.594 0.289-2.416 0.049-0.338 0.193-0.676 0.386-1.015 0.435-0.676 0.821-1.401 1.207-2.126s0.82-1.353 1.351-1.981c0.482-0.58 1.061-1.112 1.592-1.643 0.338-0.339 0.676-0.629 1.014-0.919 0.193-0.144 0.241-0.338 0.193-0.531-0.193-0.628-0.145-1.257-0.242-1.885-0.193-1.015-0.289-2.029-0.53-3.044-0.193-0.822-0.338-1.643-0.483-2.513v-0.29c0-0.338 0-0.387-0.386-0.387-0.241 0-0.483 0-0.724 0.049-0.627 0.145-1.254 0.145-1.834 0.29-0.289 0.096-0.579 0-0.868 0.096-1.013 0.338-2.075 0.193-3.137 0.387-0.434 0.096-0.917 0.193-1.351 0.241-1.013 0.145-1.978 0.339-2.992 0.484-1.399 0.193-2.798 0.435-4.198 0.628-0.531 0.097-1.11 0.145-1.64 0.242-0.869 0.193-1.7376 0.338-2.6062 0.483-0.5791 0.096-1.1581 0.241-1.7372 0.386-0.4343 0.097-0.8203-0.048-1.2546-0.145-0.4343-0.096-0.8686-0.29-1.2064-0.628-0.0482-0.048-0.1447-0.145-0.2413-0.193-0.579-0.338-0.8203-0.87-0.9168-1.498-0.0965-0.58-0.193-1.112-0.3378-1.692-0.0965-0.338-0.0965-0.724-0.1447-1.063-0.2413-1.353-0.3861-2.658-0.6274-4.011-0.1447-0.87-0.2412-1.691-0.4342-2.561-0.09656-0.483-0.14481-0.918-0.24132-1.401-0.14477-0.629-0.19302-1.257-0.28953-1.837-0.19302-1.063 0.09651-1.691 1.1098-2.416 0.3378-0.242 0.7721-0.193 1.1099-0.242 0.6755-0.048 1.3028-0.241 1.9784-0.29 0.9169-0.096 1.8337-0.241 2.7023-0.386 1.2064-0.194 2.3645-0.387 3.523-0.58 0.916-0.145 1.785-0.242 2.702-0.387 0.82-0.145 1.689-0.29 2.509-0.435 1.062-0.145 2.123-0.338 3.185-0.483 0.917-0.145 1.834-0.242 2.702-0.435 0.772-0.145 1.593-0.242 2.413-0.338 1.206-0.193 2.461-0.387 3.667-0.58 1.303-0.193 2.606-0.338 3.861-0.58 1.64-0.29 3.281-0.483 4.922-0.773 0.627-0.145 1.303-0.145 1.93-0.242 0.82-0.096 1.641-0.241 2.461-0.386 0.434-0.049 0.772-0.29 1.061-0.58 0.242-0.29 0.483-0.532 0.676-0.87 0.386-0.725 0.869-1.402 1.206-2.175 0.145-0.338 0.338-0.725 0.483-1.063 0.096-0.145 0-0.242-0.097-0.338-0.386-0.339-0.675-0.725-1.013-1.112-0.289-0.386-0.482-0.821-0.675-1.256-0.242-0.58-0.531-1.16-0.773-1.74-0.193-0.387-0.241-0.87-0.289-1.305-0.097-0.821-0.434-1.643-0.579-2.464 0-0.145-0.097-0.242-0.097-0.387 0-0.338-0.193-0.58-0.482-0.725-0.241-0.096-0.434-0.241-0.676-0.386-0.531-0.29-0.868-0.677-1.061-1.257-0.435-1.256-0.724-2.513-0.579-3.866 0.048-0.58 0.241-1.16 0.482-1.691 0.193-0.435 0.579-0.822 1.062-0.87 0.144-0.048 0.193-0.097 0.241-0.242 0.048-0.241 0-0.483-0.048-0.725-0.049-0.145-0.049-0.338-0.049-0.483-0.048-1.546-0.048-3.093-0.096-4.591 0-0.8213-0.048-1.6912 0-2.5127 0-0.9182 0.29-1.7397 0.676-2.5612 0.048-0.145 0.096-0.2417 0.144-0.3866 0.049-0.145 0.145-0.29 0.29-0.3383 0.531-0.2416 0.868-0.6282 0.965-1.2081 0.096-0.435 0.338-0.7249 0.82-0.8216 0.579-0.0966 0.965-0.4349 1.207-0.9665 0.193-0.3866 0.386-0.5316 0.82-0.3866 0.676 0.145 1.206 0 1.689-0.4832 0.434-0.38664 0.965-0.4833 1.496-0.24167 0.579 0.24167 1.061 0.14498 1.544-0.1933 0.386-0.28995 0.82-0.28995 1.255 0 0.096 0.04833 0.144 0.09665 0.241 0.14498 0.386 0.24159 0.772 0.24159 1.206 0.04832 0.145-0.04832 0.29-0.14497 0.434-0.24163 0.387-0.24162 0.531-0.24162 0.917 0.04833 0.193 0.14498 0.386 0.28995 0.676 0.38657 0.434 0.0967 0.82 0.0484 1.206-0.24159 0.386-0.24163 0.628-0.24163 0.965 0 0.483 0.43489 1.014 0.43489 1.593 0.24159 0.193-0.04829 0.338-0.14494 0.482 0 0.097 0.0484 0.193 0.0484 0.338 0.0484 0.241-0.0484 0.338 0.0483 0.483 0.2416 0.386 0.7249 0.868 0.9665 1.689 0.8215 0.386-0.0483 0.482 0 0.627 0.3866 0.096 0.2416 0.193 0.4833 0.386 0.6766 0.289 0.2899 0.675 0.4349 1.11 0.4832 0.193 0 0.386 0.0967 0.482 0.2417 0.049 0.0966 0.145 0.1933 0.242 0.2899 0.193 0.145 0.241 0.3383 0.241 0.5799 0 0.3866 0.145 0.7732 0.434 1.0632 0.241 0.2416 0.338 0.4832 0.241 0.8215-0.096 0.3383-0.048 0.7249 0.097 1.0632 0.193 0.4349 0.241 0.8698 0.193 1.3531-0.097 0.8215-0.048 1.5948-0.048 2.4158 0 0.967-0.097 1.933-0.145 2.948-0.048 0.677-0.048 1.353-0.048 2.03 0 0.58 0.193 1.063 0.675 1.401 0.29 0.194 0.386 0.58 0.483 0.919 0.193 0.676 0.289 1.401 0.434 2.126 0.145 0.918 0.193 1.836-0.096 2.754-0.29 0.822-0.724 1.643-1.689 1.982-0.29 0.096-0.531 0.338-0.821 0.435-0.193 0.096-0.241 0.241-0.193 0.435 0.049 0.821-0.193 1.594-0.241 2.416-0.048 0.725-0.289 1.401-0.579 2.03-0.193 0.434-0.386 0.918-0.531 1.353-0.241 0.821-0.724 1.449-1.254 2.078-0.193 0.193-0.338 0.386-0.579 0.531-0.145 0.097-0.145 0.194-0.049 0.339 0.097 0.096 0.145 0.193 0.193 0.289 0.531 0.629 1.014 1.257 1.544 1.885 0.145 0.145 0.29 0.338 0.531 0.387 0.048 0 0.097 0.048 0.145 0.096 0.29 0.339 0.676 0.532 0.965 0.87 0.29 0.339 0.676 0.58 1.062 0.822 0.193 0.145 0.386 0.241 0.579 0.386 0.579 0.387 1.206 0.629 1.833 0.87 0.097 0.049 0.193 0.097 0.29 0.145 0.917 0.628 1.978 0.918 2.944 1.353 0.723 0.339 1.447 0.58 2.123 1.015 0.338 0.193 0.724 0.29 1.061 0.483 0.338 0.145 0.676 0.242 0.965 0.484 0.145 0.096 0.338 0.096 0.483 0.145 1.255 0.386 2.413 1.063 3.523 1.836 0.579 0.387 1.158 0.822 1.688 1.305 0.483 0.386 0.821 0.918 1.255 1.305 0.627 0.579 0.869 1.401 1.4 2.029 0.627 0.822 0.916 1.837 1.447 2.755 0.193 0.338 0.29 0.676 0.386 1.015 0.193 0.676 0.434 1.353 0.628 2.029 0.241 0.967 0.579 1.933 0.82 2.9 0.096 0.386 0.193 0.773 0.338 1.16 0.144 0.435 0.241 0.869 0.337 1.304 0.049 0.145 0.049 0.29 0.097 0.435 0.386 0.967 0.482 2.03 0.675 3.045 0.145 0.725 0.29 1.498 0.435 2.223 0.289 1.256 0.434 2.561 0.531 3.866 0.048 0.821 0.144 1.643 0.289 2.464 0 0.097 0 0.194 0.048 0.29 0.049 0.967 0.193 1.933 0.338 2.9 0.145 0.918 0.241 1.788 0.338 2.706 0.048 0.483 0 0.967-0.097 1.402-0.048 0.145-0.048 0.29-0.048 0.434 0.097 0.919 0 1.885 0.145 2.803 0.048 0.29 0 0.58 0 0.822 0 0.725 0 1.498 0.048 2.223 0 0.386 0 0.386-0.338 0.483-0.579 0.097-1.206 0.193-1.833 0.29-0.193 0.048-0.242-0.048-0.193-0.193 0.144-1.74 0.144-3.48 0.096-5.171 0-0.967-0.048-1.885-0.145-2.851-0.048-0.339-0.048-0.677 0-1.015 0.049-1.112-0.144-2.223-0.241-3.335-0.048-0.386-0.096-0.821-0.096-1.208 0-0.386-0.097-0.773-0.097-1.159-0.096-0.774-0.096-1.547-0.241-2.272-0.29-1.498-0.483-3.044-0.772-4.542-0.097-0.58-0.145-1.112-0.29-1.692-0.096-0.29-0.096-0.628-0.144-0.918-0.145-1.015-0.435-2.03-0.676-3.044-0.097-0.339-0.145-0.677-0.193-1.015-0.048-0.387-0.145-0.773-0.29-1.112-0.289-0.773-0.434-1.594-0.675-2.416-0.241-0.918-0.627-1.788-1.11-2.61-0.627-1.159-1.303-2.223-1.978-3.334-0.29-0.483-0.676-0.87-1.062-1.305-0.724-0.773-1.544-1.353-2.461-1.933-0.965-0.676-2.027-1.111-3.088-1.643zm-71.562 1.981c0.0483 0.29 0.0483 0.629 0.1448 0.967 0.193 0.628 0.3378 1.305 0.386 1.933 0.1931 1.933 0.6756 3.866 0.9651 5.751 0.1448 0.918 0.3378 1.788 0.4826 2.658 0.0482 0.241 0.0482 0.531 0.193 0.724 0.2895 0.387 0.7238 0.629 1.2064 0.58 0.386-0.048 0.8203-0.048 1.2063-0.145 0.5791-0.145 1.2064-0.193 1.8337-0.29 1.4964-0.145 2.9434-0.483 4.4394-0.628 1.206-0.145 2.413-0.338 3.571-0.483 0.048 0 0.145 0 0.193-0.048 0.869-0.242 1.737-0.339 2.654-0.435 1.496-0.194 2.992-0.435 4.488-0.629 1.11-0.144 2.219-0.338 3.281-0.483 0.434-0.048 0.82-0.145 1.255-0.193 0.53-0.097 1.013-0.193 1.544-0.242 0.965-0.096 1.882-0.29 2.799-0.386 0.579-0.097 1.158-0.242 1.785-0.29 0.772-0.049 1.544-0.29 2.364-0.29 0.097 0 0.193-0.049 0.29-0.097 0.241-0.097 0.483-0.145 0.724-0.145 0.193 0 0.386 0 0.579-0.048 0.579-0.048 1.11-0.242 1.641-0.242 0.241 0 0.434-0.048 0.675-0.096 1.255-0.194 2.461-0.435 3.716-0.629 0.627-0.096 1.254-0.193 1.882-0.241 0.579-0.097 1.11-0.242 1.689-0.242 0.482 0 0.916-0.097 1.399-0.193 0.579-0.097 1.11-0.194 1.689-0.29 0.289-0.049 0.579-0.097 0.772-0.29 0.193-0.242 0.386-0.532 0.482-0.87v-0.145c-0.144-0.387-0.096-0.821-0.144-1.256-0.193-1.015-0.435-2.078-0.531-3.142-0.097-0.724-0.241-1.449-0.338-2.174-0.048-0.435-0.096-0.918-0.145-1.353-0.193-1.45-0.53-2.852-0.675-4.301-0.048-0.387-0.386-0.773-0.724-0.773-0.483 0-0.965-0.145-1.448 0-0.386 0.096-0.772 0.144-1.158 0.241-1.303 0.193-2.606 0.435-3.86 0.677-0.434 0.096-0.917 0.145-1.351 0.193-0.483 0.097-0.965 0.193-1.496 0.242-0.965 0.145-1.93 0.241-2.895 0.435-1.255 0.241-2.558 0.434-3.813 0.628-1.254 0.193-2.509 0.386-3.812 0.58-0.917 0.145-1.882 0.338-2.799 0.483-0.723 0.145-1.495 0.242-2.219 0.338-0.435 0.049-0.821 0.194-1.255 0.194-0.531 0.048-1.061 0.144-1.544 0.241-0.965 0.145-1.93 0.29-2.895 0.483-1.062 0.194-2.075 0.339-3.137 0.484-0.579 0.096-1.158 0.193-1.737 0.29-0.579 0.096-1.11 0.193-1.689 0.29-0.772 0.145-1.496 0.193-2.268 0.338-0.675 0.145-1.3511 0.29-2.0749 0.338-0.9168 0.145-1.8819 0.29-2.7988 0.435-0.8203 0.145-1.6889 0.29-2.5092 0.435-0.7238 0.048-1.0616 0.483-1.0134 1.111zm49.702-23.824h3.523c0.386 0 0.772 0 1.11 0.048 0.579 0.097 0.82 0.339 0.82 0.774-0.097 1.643 0 3.334-0.048 4.977-0.049 1.063 0 2.126 0.241 3.19 0.048 0.241 0.097 0.483 0.241 0.724 0.193 0.29 0.29 0.339 0.579 0.194 0.242-0.097 0.483-0.194 0.724-0.339 0.965-0.628 1.882-1.353 2.22-2.512 0.096-0.29 0.145-0.532 0.241-0.822 0.097-0.483 0.29-0.918 0.531-1.353 0.096-0.145 0.145-0.29 0.145-0.435 0.096-0.677 0.193-1.353 0.289-2.03 0.145-0.966 0.193-1.981 0.242-2.948 0-0.338 0.193-0.579 0.434-0.579 0.193 0 0.386 0.241 0.434 0.579 0.048 0.435 0.097 0.87 0.145 1.305 0 0.145 0.096 0.242 0.241 0.194 0.241-0.097 0.483-0.145 0.724-0.242 0.289-0.097 0.434-0.338 0.579-0.58 0.097-0.193 0.145-0.435 0.193-0.628 0.145-1.547 0.048-3.045-0.386-4.543-0.097-0.386-0.29-0.628-0.724-0.676-0.145 0-0.241-0.049-0.386 0-0.193 0.048-0.338 0.096-0.531 0.096-0.289 0.049-0.482-0.096-0.53-0.338-0.097-0.435-0.29-0.773-0.483-1.16-0.193-0.435-0.338-0.918-0.338-1.401 0-0.677 0-1.353-0.096-1.982-0.049-0.628-0.097-1.208-0.097-1.836 0-0.58 0-1.111-0.145-1.643v-0.1933c0.049-0.8698-0.289-1.5464-0.916-2.078-0.628-0.5799-1.352-1.0148-2.22-1.2081-1.255-0.3383-2.558-0.5799-3.861-0.6282-2.171-0.0484-4.294 0.2416-6.466 0.3382-0.772 0.0484-1.447 0.29-2.075 0.6766-0.241 0.145-0.482 0.29-0.772 0.3383-0.386 0.0966-0.724 0.2899-1.013 0.5316-0.338 0.3382-0.676 0.7248-0.724 1.2081-0.096 0.7732-0.241 1.5948-0.338 2.3678-0.193 1.16-0.289 2.32-0.434 3.431-0.096 0.677-0.145 1.353-0.579 1.933-0.241 0.339-0.483 0.628-0.724 0.967-0.048 0.096-0.145 0.145-0.193 0.096-0.289-0.048-0.531 0.049-0.82 0-0.338-0.048-0.627 0.049-0.772 0.435-0.338 0.822-0.531 1.643-0.531 2.513s0.193 1.643 0.482 2.465c0.194 0.483 0.58 0.773 1.062 0.918 0.338 0.097 0.434 0 0.434-0.387v-0.773c0-0.145 0.097-0.29 0.29-0.338s0.289 0.048 0.386 0.145c0.096 0.097 0.145 0.242 0.145 0.387 0.048 0.676 0.048 1.401 0.096 2.078 0.048 0.483 0.048 1.014 0.193 1.498 0.193 0.676 0.338 1.353 0.579 2.029 0.097 0.387 0.193 0.773 0.483 1.063 0.386 0.387 0.675 0.87 0.965 1.305 0.289 0.435 0.579 0.87 0.965 1.208 0.338 0.29 0.676 0.58 0.965 0.919 0.145 0.193 0.338 0.338 0.579 0.434 0.193 0.097 0.29 0.097 0.29-0.145 0-0.918 0.144-1.836 0.096-2.802-0.193-2.03 0.048-4.06-0.096-6.089 0-0.339 0.048-0.387 0.434-0.435h0.483c1.061-0.145 2.412-0.145 3.715-0.242zm0.338 0.87h-2.558c-0.434 0-0.868 0-1.302 0.048-0.29 0-0.338 0.097-0.338 0.339 0.048 1.788 0.145 3.527 0.096 5.315 0 0.194 0 0.387 0.049 0.58 0.048 0.242 0.048 0.532 0.048 0.773-0.097 0.725 0.096 1.402 0.482 2.03 0.29 0.435 0.628 0.773 1.11 1.015 0.242 0.097 0.435 0.242 0.676 0.338 0.241 0.145 0.482 0.242 0.772 0.29 1.013 0.242 1.978 0.097 2.943-0.097 0.435-0.096 0.917-0.193 1.303-0.434 0.145-0.097 0.29-0.194 0.386-0.387 0.29-0.677 0.579-1.401 0.531-2.175-0.048-1.159 0-2.319 0-3.479 0-1.257-0.048-2.513 0.048-3.769 0.049-0.339-0.144-0.532-0.482-0.532h-0.241c-1.207 0.097-2.365 0.193-3.523 0.145zm-20.798 43.879c0.145 0.097 0.338 0 0.579 0 0.338-0.048 0.386-0.096 0.338-0.435-0.048-0.483-0.145-0.966-0.193-1.449-0.048-0.677-0.241-1.353-0.29-2.03-0.048-0.628-0.193-1.208-0.289-1.836-0.145-1.209-0.338-2.465-0.579-3.673-0.048-0.193-0.097-0.338-0.145-0.532-0.048-0.241-0.145-0.29-0.386-0.29-0.241 0.049-0.531 0.049-0.772 0.097-0.724 0.097-0.724 0.145-0.627 0.87 0.144 0.966 0.386 1.981 0.289 2.996 0 0.097 0.048 0.145 0.048 0.242 0.145 0.676 0.338 1.353 0.483 2.078 0.193 1.063 0.483 2.126 0.627 3.189 0.145 0.725 0.145 0.725 0.917 0.773zm4.054-2.899c0-0.193 0.048-0.338 0-0.483-0.049-0.097-0.049-0.194-0.193-0.242-0.097 0-0.242 0-0.29 0.097-0.097 0.096-0.145 0.193-0.193 0.29-0.193 0.289-0.386 0.628-0.724 0.773-0.145 0.048-0.193 0.193-0.241 0.338-0.048 0.242-0.097 0.483-0.097 0.725 0.049 0.387 0.193 0.725 0.145 1.111 0 0.145 0.097 0.29 0.241 0.29 0.193 0.049 0.338 0 0.435-0.145 0.241-0.483 0.627-0.966 0.724-1.546 0.096-0.387 0.193-0.773 0.193-1.208z"/>
	<path id="Path" d="m76.677 88.967c-0.193 0.048-0.338-0.048-0.386-0.29-0.145-0.435-0.241-0.821-0.29-1.305-0.048-0.628-0.144-1.256-0.337-1.884-0.435-1.305-0.531-2.61-0.724-3.963-0.097-0.725-0.193-1.45-0.242-2.175-0.096-0.821-0.048-1.594-0.096-2.416-0.048-1.015-0.145-1.981-0.193-2.996-0.097-0.918-0.097-1.788-0.145-2.706 0-0.484 0.048-1.015-0.048-1.499v-0.386c0.048-1.257 0.096-2.513 0.096-3.769 0-1.015 0.097-1.982 0.145-2.997 0.048-0.628 0.145-1.256 0.193-1.933 0.048-0.58 0.29-1.111 0.434-1.691 0.049-0.193 0.193-0.29 0.387-0.338 0.241-0.049 0.482-0.049 0.723 0 0.29 0.048 0.338 0.145 0.29 0.435-0.145 0.869-0.193 1.788-0.241 2.657-0.049 1.547-0.193 3.093-0.049 4.688 0.097 1.16 0.049 2.32 0.049 3.479 0 0.484 0.048 0.967 0.096 1.402 0.048 0.821 0.097 1.691 0.097 2.513 0 0.628 0.096 1.208 0.144 1.836 0.049 1.16 0.145 2.271 0.242 3.431 0.096 1.112 0.193 2.175 0.337 3.286 0.145 1.305 0.29 2.61 0.483 3.963 0.048 0.387 0.096 0.822 0 1.208-0.097 0.29 0.048 0.58 0 0.87-0.048 0.483 0.048 0.435-0.483 0.483-0.193 0.049-0.337 0.049-0.482 0.097z"/>
	<path id="Path" d="m23.018 61.083c-0.049 0.194-0.049 0.387-0.097 0.58-0.241 0.87-0.531 1.74-0.772 2.658-0.097 0.387-0.145 0.773-0.29 1.16-0.289 1.063-0.579 2.126-0.772 3.189-0.096 0.532-0.193 1.063-0.241 1.595-0.096 0.677-0.193 1.305-0.386 1.981-0.145 0.629-0.289 1.257-0.386 1.933-0.145 0.919-0.29 1.788-0.434 2.707-0.145 0.821-0.242 1.691-0.242 2.561 0 0.58-0.144 1.208-0.193 1.788-0.048 0.532-0.144 1.015-0.144 1.546 0 0.967-0.193 1.885-0.145 2.852v0.386c0 0.387 0 0.822-0.048 1.208-0.097 0.58 0 1.208 0.048 1.788 0 0.387 0.145 0.774 0.096 1.16-0.048 0.387-0.048 0.387-0.434 0.29-0.338-0.097-0.675-0.242-0.965-0.435-0.193-0.097-0.241-0.241-0.29-0.435-0.048-0.58-0.048-1.111-0.096-1.691-0.097-1.112-0.048-2.271-0.097-3.383-0.048-0.628 0.049-1.305 0.049-1.981 0-0.58 0.096-1.208 0.193-1.788 0.048-0.532 0.096-1.063 0.193-1.595 0.096-0.435 0.096-0.87 0.145-1.353 0.048-0.725 0.144-1.402 0.289-2.126 0.193-1.209 0.483-2.417 0.627-3.625 0.097-0.966 0.242-1.885 0.386-2.803 0.049-0.531 0.242-1.063 0.386-1.643 0.097-0.483 0.193-0.918 0.29-1.401 0.048-0.194 0.145-0.387 0.193-0.58 0.338-1.112 0.483-2.271 0.869-3.383 0.048-0.145 0.144-0.242 0.144-0.387 0.049-0.483 0.338-0.579 0.724-0.579 0.338 0 0.724-0.097 1.062-0.145 0.048-0.097 0.193-0.097 0.338-0.049z"/>
	<path id="Path" d="m38.797 58.715c0.048 0 0.193 0 0.241 0.194 0.145 0.869 0.531 1.691 0.82 2.513 0.242 0.773 0.531 1.498 0.821 2.271 0.289 0.821 0.434 1.691 0.675 2.561 0.193 0.87 0.386 1.788 0.628 2.658 0.096 0.387 0.193 0.773 0.386 1.111 0.048 0.097 0.096 0.242 0.096 0.339 0.048 0.628 0.241 1.256 0.483 1.836 0.193 0.532 0.289 1.112 0.434 1.691 0.241 1.209 0.434 2.417 0.724 3.625 0.289 1.208 0.531 2.416 0.82 3.624 0.097 0.387 0.097 0.822 0.193 1.208 0.145 1.209 0.435 2.368 0.579 3.576 0.097 0.967 0.29 1.885 0.483 2.852 0.048 0.29 0.096 0.58 0.145 0.87 0.048 0.434-0.193 0.773-0.483 1.063-0.145 0.145-0.289 0.241-0.434 0.386s-0.242 0.145-0.338-0.048c-0.048-0.097-0.048-0.145-0.097-0.242-0.096-0.58-0.241-1.208-0.337-1.788-0.193-1.159-0.338-2.368-0.531-3.576-0.193-1.16-0.338-2.271-0.579-3.431-0.193-0.918-0.338-1.836-0.483-2.754-0.096-0.677-0.289-1.354-0.434-1.982-0.145-0.435-0.145-0.918-0.241-1.353-0.145-0.87-0.435-1.74-0.628-2.658-0.144-0.628-0.241-1.208-0.386-1.836-0.193-0.725-0.386-1.402-0.579-2.126-0.144-0.677-0.337-1.354-0.53-2.03-0.049-0.193-0.145-0.387-0.242-0.532-0.338-0.725-0.434-1.498-0.675-2.223-0.097-0.241-0.242-0.483-0.338-0.773-0.29-0.966-0.579-1.933-0.869-2.851-0.193-0.628-0.289-1.257-0.627-1.788-0.097-0.145 0-0.242 0.145-0.242 0.289-0.048 0.675-0.096 1.158-0.145z"/>
	<path id="Path" d="m53.032 83.265c0-1.112-0.145-2.175-0.29-3.238-0.193-1.305-0.434-2.61-0.627-3.963-0.096-0.87-0.338-1.74-0.579-2.561-0.096-0.338-0.193-0.725-0.145-1.112 0-0.145 0.049-0.241 0.193-0.29 0.29-0.096 0.579-0.193 0.869-0.29 0.145-0.048 0.241 0 0.289 0.145 0.097 0.484 0.29 0.919 0.387 1.402 0.096 0.483 0.289 0.918 0.386 1.401 0.048 0.29 0.144 0.58 0.144 0.919 0.049 0.724 0.242 1.401 0.338 2.126 0.048 0.483 0.097 1.015 0.145 1.498 0.048 0.242 0.048 0.531 0.145 0.773 0.144 0.532 0.144 1.063 0.193 1.595 0.048 0.87 0.193 1.788 0.144 2.658v0.193c0 0.58-0.193 0.773-0.772 0.822-0.193 0.048-0.434-0.145-0.53-0.339-0.193-0.435-0.193-0.87-0.193-1.353-0.097-0.096-0.097-0.241-0.097-0.386z"/>
	<path id="Path" d="m62.635 57.604c0.144 0.048 0.241 0.145 0.241 0.29 0.097 1.111 0.531 2.174 0.579 3.334 0 0.145 0.048 0.339 0.097 0.483 0.048 0.242 0.096 0.435 0.048 0.677-0.097 0.58-0.048 1.16-0.145 1.691-0.096 0.725-0.193 1.499-0.579 2.175-0.097 0.193-0.241 0.29-0.386 0.387-0.338 0.193-0.579 0.145-0.772-0.194-0.145-0.29-0.241-0.628-0.386-0.918-0.338-0.821-0.434-1.691-0.386-2.561 0.048-0.435 0-0.87 0.096-1.305 0.097-0.725 0.242-1.401 0.628-1.981 0.337-0.483 0.482-1.015 0.723-1.547 0.049-0.193 0.145-0.338 0.242-0.531z"/>
	<path id="Path" d="m55.155 76.306c0.048-0.145-0.096-0.339 0.097-0.435 0.193-0.097 0.289 0.096 0.434 0.193 0.869 0.822 1.641 1.74 2.172 2.851 0.434 0.87 0.675 1.788 0.965 2.658 0.096 0.338 0.144 0.677 0.193 1.015 0.048 0.193 0.048 0.435 0.144 0.628 0.049 0.097 0.049 0.194 0 0.339-0.048 0.145-0.096 0.193-0.241 0.193-0.772-0.145-1.351-0.532-1.785-1.16-0.579-0.87-1.11-1.74-1.544-2.706-0.097-0.193-0.145-0.387-0.145-0.58-0.145-1.015-0.193-2.03-0.29-2.996z"/>
	<path id="Path" d="m61.525 51.805c0.048 0.628-0.048 1.208-0.241 1.739-0.193 0.484-0.386 0.919-0.531 1.402s-0.483 0.773-0.772 1.111c-0.435 0.435-0.917 0.822-1.303 1.305-0.193 0.194-0.434 0.242-0.676 0.387-0.482 0.241-0.965 0.338-1.496 0.435-0.241 0.048-0.241 0-0.241-0.242 0.097-0.483 0.29-0.966 0.483-1.401 0.337-0.822 0.82-1.547 1.303-2.272 0.289-0.386 0.627-0.676 0.965-0.966 0.386-0.338 0.82-0.628 1.206-0.918 0.434-0.29 0.869-0.435 1.303-0.58z"/>
	<path id="Path" d="m50.233 59.392s0.049 0 0 0c0.531 0.483 1.158 0.87 1.593 1.401 0.337 0.435 0.772 0.725 1.061 1.16 0.483 0.725 0.869 1.45 1.207 2.223 0.337 0.822 0.386 1.691 0.579 2.513v0.193c0 0.145 0.048 0.29-0.097 0.387s-0.338 0.048-0.482-0.097c-0.483-0.386-0.917-0.773-1.255-1.305-0.579-0.869-1.206-1.691-1.785-2.512-0.29-0.435-0.531-0.822-0.579-1.354 0-0.145-0.049-0.338-0.145-0.483-0.29-0.676-0.29-1.353-0.242-2.029 0.097-0.049 0.145-0.049 0.145-0.097z"/>
	<path id="Path" d="m46.662 65.433c0 0.821-0.096 1.691-0.193 2.512-0.048 0.677-0.193 1.354-0.579 1.982-0.048 0.096-0.096 0.193-0.144 0.241-0.097 0.145-0.242 0.145-0.338 0-0.097-0.096-0.145-0.241-0.193-0.435-0.097-0.579-0.242-1.159-0.338-1.739-0.145-0.628-0.097-1.257-0.241-1.885v-0.097c0.096-1.063-0.097-2.078 0.096-3.141 0.097-0.483 0.29-0.966 0.434-1.449 0.049-0.097 0.097-0.194 0.194-0.242 0.096-0.097 0.241-0.145 0.337 0.048 0.145 0.29 0.338 0.483 0.579 0.725 0.193 0.193 0.242 0.435 0.242 0.677 0.096 0.725 0 1.498 0.193 2.223 0 0.241-0.049 0.435-0.049 0.58z"/>
	<path id="Path" d="m47.193 83.844c0-0.434 0.048-0.869 0.145-1.304 0.096-0.339 0.289-0.677 0.434-1.015 0.242-0.725 0.483-1.45 0.869-2.126 0.338-0.484 0.627-1.015 1.061-1.402 0.193-0.145 0.338-0.29 0.58-0.338 0.144-0.048 0.241 0 0.241 0.145 0 0.628 0.145 1.208 0 1.836-0.145 0.58-0.241 1.208-0.29 1.788-0.048 0.532-0.241 1.015-0.579 1.402-0.386 0.435-0.675 1.014-1.11 1.449-0.241 0.29-0.53 0.484-0.868 0.532-0.483 0.048-0.483 0.048-0.483-0.435v-0.532z"/>
	<path id="Path" d="m61.766 54.898c0.434-0.725 0.917-1.402 1.448-2.03 0.386-0.483 0.772-0.967 1.11-1.45 0.386-0.483 0.772-0.966 1.158-1.45 0.241-0.29 0.531-0.579 0.772-0.869 0.145-0.145 0.193-0.387 0.289-0.58 0.29 0.241 0.579 0.435 0.869 0.676 0.145 0.097 0.145 0.242 0.048 0.338-0.289 0.484-0.675 0.967-1.061 1.402-0.579 0.676-1.159 1.401-1.689 2.078-0.145 0.193-0.338 0.387-0.483 0.628-0.386 0.483-0.675 1.015-1.061 1.45-0.242 0.29-0.435 0.338-0.724 0.145-0.242-0.097-0.435-0.193-0.676-0.338z"/>
	<path id="Path" d="m45.697 57.652c0.386-0.096 0.772-0.145 1.158-0.241 0.193-0.049 0.29 0 0.338 0.193 0.29 0.628 0.579 1.256 0.869 1.885 0.241 0.483 0.434 0.918 0.627 1.401 0.048 0.193 0.145 0.387 0.145 0.58 0.048 0.241 0 0.435-0.241 0.531-0.145 0.049-0.242 0.194-0.338 0.29-0.193 0.145-0.241 0.145-0.338-0.096-0.145-0.484-0.338-0.967-0.627-1.402-0.386-0.628-0.724-1.304-1.11-1.933-0.145-0.435-0.338-0.773-0.483-1.208z"/>
	<path id="Path" d="m68.184 80.317c-0.724-0.097-1.11-0.387-1.206-0.918-0.049-0.29 0.048-0.58 0.096-0.919 0-0.048 0.048-0.048 0.048-0.096 0.242-0.242 1.062-0.242 1.352-0.049 0.337 0.242 0.53 0.58 0.579 0.967 0.096 0.483-0.435 1.015-0.869 1.015z"/>
	<path id="Path" d="m65.916 84.424v-0.096c0-0.532 0.193-0.725 0.724-0.725 0.145 0 0.241 0 0.386 0.048 0.434 0.049 0.772 0.338 0.869 0.677 0.096 0.483-0.049 1.015-0.435 1.256-0.289 0.194-0.627 0.435-0.965 0.194-0.338-0.242-0.531-0.629-0.579-1.064-0.048-0.096 0-0.193 0-0.29z"/>
	<path id="Path" d="m70.935 69.927c0.048 0.386-0.193 0.725-0.435 1.015-0.289 0.29-0.82 0.29-1.11 0-0.386-0.387-0.53-0.919-0.289-1.45 0-0.048 0.048-0.097 0.048-0.097 0.386-0.193 0.724-0.386 1.158-0.338 0.338 0 0.676 0.338 0.628 0.87z"/>
	<path id="Path" d="m69.149 75.581c-0.531 0-1.11-0.483-1.254-1.063-0.049-0.194 0.048-0.387 0.193-0.532 0.048-0.097 0.144-0.193 0.241-0.242 0.482-0.434 0.772-0.386 1.206 0.049 0.434 0.531 0.483 0.966 0.145 1.498-0.145 0.145-0.29 0.29-0.531 0.29z"/>
	<path id="Path" d="m50.426 74.856c0.049 0.628-0.434 1.063-1.11 0.87-0.723-0.193-0.916-0.58-0.53-1.305 0.241-0.483 0.53-0.532 1.013-0.338 0.048 0 0.096 0.048 0.145 0.048 0.386 0.193 0.482 0.29 0.482 0.725z"/>
	<path id="Path" d="m43.478 58.377c0.434 0 0.772 0.338 0.868 0.822 0.048 0.338-0.241 0.869-0.482 1.063-0.049 0.048-0.145 0.048-0.193 0.048-0.435 0-0.966-0.58-0.917-1.015 0-0.096 0.048-0.193 0.048-0.29 0-0.435 0.241-0.628 0.676-0.628z"/>
	<path id="Path" d="m62.973 49.823c-0.531 0-0.773-0.29-0.821-0.821 0-0.532 0.386-0.918 0.869-0.918 0.289 0 0.82 0.531 0.82 0.87 0 0.531-0.338 0.869-0.868 0.869z"/>
	<path id="Path" d="m64.517 57.314c-0.145-0.048-0.386 0.048-0.483-0.097-0.145-0.193-0.338-0.435-0.338-0.725s0.242-0.483 0.435-0.676c0.337-0.338 0.675-0.387 1.013-0.049 0.048 0 0.048 0.049 0.048 0.097 0 0.29 0.097 0.532 0.145 0.822 0 0.338-0.29 0.58-0.82 0.628z"/>
	<path id="Path" d="m56.072 73.744c0 0.435-0.289 0.774-0.675 0.774-0.435-0.049-0.869-0.29-0.821-0.822 0-0.435 0.386-0.918 0.724-0.87 0.386 0 0.772 0.435 0.772 0.918z"/>
	<path id="Path" d="m9.0719 52.723c-0.4343 0.29-0.3378 0.773-0.386 1.16-0.0965 0.531-0.2896 1.015-0.3861 1.546-0.0482 0.242-0.2895 0.338-0.4343 0.483-0.0482 0.049-0.4343-0.096-0.4825-0.241-0.2895-0.677-0.9169-1.16-1.0616-1.982 0-0.048 0-0.048-0.0483-0.096-0.3378-0.483-0.5308-1.063-0.7238-1.643-0.1448-0.483-0.4825-0.822-0.6756-1.305-0.0482-0.097-0.0965-0.242-0.193-0.338-0.193-0.387-0.193-0.387 0.1448-0.677 0.4825-0.435 0.9651-0.338 1.2546 0.242 0.2895 0.531 0.5308 1.063 0.7238 1.643 0.0965 0.241 0.193 0.483 0.2896 0.676 0.1447 0.339 0.386 0.339 0.5308 0 0.193-0.338 0.2895-0.676 0.4343-1.063 0.0482-0.193 0.0965-0.338 0.193-0.531 0.2412-0.58 0.7238-0.725 1.2063-0.29 0.2896 0.241 0.5791 0.531 0.7241 0.87 0.193 0.386 0.531 0.724 0.82 1.063 0.097-0.145 0.193-0.29 0.145-0.484-0.048-0.531 0.096-1.063 0.145-1.643 0.048-0.241-0.097-0.483 0-0.773 0.096-0.241 0.193-0.531 0.386-0.725 0.193-0.241 0.386-0.29 0.675-0.145 0.435 0.242 0.483 0.484 0.386 0.967-0.096 0.628-0.241 1.256-0.241 1.885 0 0.145 0 0.338-0.097 0.483-0.096 0.145-0.096 0.338-0.096 0.531 0 0.677 0.048 1.353 0 2.03 0 0.145 0.048 0.387-0.097 0.435-0.241 0.097-0.482 0.242-0.772 0.145-0.482-0.193-0.868-0.483-1.206-0.918-0.2895-0.339-0.4825-0.725-0.7721-1.063-0.0482 0-0.2412-0.097-0.386-0.242z"/>
	<path id="Path" d="m36.963 45.474c0-0.096-0.048-0.29-0.048-0.483 0-0.387 0.145-0.532 0.482-0.338 0.193 0.096 0.435 0.048 0.628 0.193 0.579 0.58 1.447 0.821 1.93 1.498 0.096 0.097 0.193 0.242 0.29 0.338 0.144 0.145 0.241 0.145 0.289 0 0.29-0.725 0.869-1.256 1.158-1.981 0.193-0.435 0.531-0.725 0.917-0.918 0.338-0.194 0.531-0.097 0.627 0.29 0 0.048 0.049 0.145 0.049 0.193 0.289 0.435 0.289 0.918 0.386 1.401 0.048 0.29 0.048 0.532 0.096 0.822 0.145 0.677 0.145 1.353 0.145 1.981 0.048 0.532 0.096 1.015 0.145 1.547 0.048 0.193-0.049 0.29-0.242 0.29h-0.048c-0.724 0.096-0.675 0.096-0.868-0.58-0.145-0.677-0.29-1.305-0.387-1.982-0.048-0.241-0.096-0.483-0.096-0.724 0-0.097 0-0.194-0.048-0.29-0.097-0.29-0.193-0.29-0.386-0.097-0.193 0.242-0.435 0.435-0.531 0.725-0.145 0.338-0.434 0.58-0.579 0.966-0.048 0.145-0.145 0.145-0.29 0.049-0.048-0.049-0.096-0.097-0.144-0.145-0.338-0.242-0.628-0.58-1.014-0.773-0.145-0.097-0.241-0.194-0.338-0.339-0.048-0.048-0.096-0.145-0.144-0.193-0.097-0.097-0.193-0.097-0.29-0.048-0.096 0.048-0.145 0.145-0.096 0.241 0.096 0.677 0 1.353 0.241 2.03 0.048 0.097 0.048 0.145 0.048 0.242-0.048 0.289 0 0.531 0.097 0.773 0.048 0.145 0.048 0.29 0.048 0.435s-0.048 0.29-0.241 0.29c-0.097 0-0.193 0.048-0.29 0.096-0.145 0.145-0.289 0.097-0.434 0.097-0.241 0-0.338-0.048-0.435-0.29-0.096-0.435-0.193-0.87-0.193-1.257 0-0.531-0.096-1.014-0.193-1.498-0.048-0.821-0.241-1.643-0.241-2.561z"/>
	<path id="Path" d="m45.601 43.444c0.241 0.049 0.386 0 0.579-0.048 0.772-0.145 1.544-0.241 2.316-0.338h0.338c0.289 0.048 0.482 0.145 0.531 0.435 0.096 0.29 0 0.531-0.193 0.725-0.242 0.193-0.483 0.338-0.821 0.386-0.53 0.097-1.061 0.097-1.592 0.242-0.193 0.048-0.29 0.097-0.241 0.29 0.048 0.145 0 0.29 0 0.435 0 0.241 0.096 0.29 0.337 0.29 0.097 0 0.193 0 0.29-0.049 0.531-0.096 1.062-0.145 1.544-0.193 0.531-0.048 0.869 0.242 0.869 0.677 0 0.29-0.145 0.483-0.435 0.628-0.337 0.097-0.627 0.145-0.965 0.193-0.337 0.049-0.675 0.097-1.013 0.145-0.193 0-0.29 0.097-0.241 0.29 0.048 0.242 0.096 0.483 0.144 0.725 0 0.145 0.145 0.145 0.193 0.145 0.386-0.048 0.821-0.048 1.207-0.193 0.096-0.049 0.193-0.049 0.289-0.049 0.386-0.193 0.724-0.048 1.062 0.194 0.241 0.145 0.289 0.338 0.289 0.628 0 0.242-0.144 0.435-0.386 0.531-0.144 0.049-0.289 0.097-0.434 0.097-0.965 0.048-1.882 0.242-2.847 0.387-0.386 0.048-0.338 0.048-0.434-0.29-0.241-0.967-0.29-1.933-0.627-2.9-0.097-0.193-0.049-0.483-0.097-0.725-0.048-0.628-0.097-1.256-0.145-1.933v-0.096c0-0.194-0.193-0.387-0.048-0.532 0.048-0.145 0.338-0.048 0.531-0.097z"/>
	<path id="Shape" d="m36.384 49.63c0.048 0.532-0.241 0.918-0.579 1.257-0.579 0.628-1.303 0.773-2.027 0.918-0.193 0.048-0.337-0.049-0.53-0.097-0.435-0.048-0.869-0.145-1.255-0.29-0.097-0.048-0.193-0.048-0.29-0.145-0.241-0.29-0.482-0.628-0.723-0.918-0.193-0.242-0.242-0.532-0.29-0.822-0.193-0.821-0.338-1.643 0.048-2.464 0.242-0.532 0.579-0.967 1.014-1.353 0.144-0.097 0.289-0.194 0.482-0.194s0.338-0.048 0.531-0.096c0.386-0.097 0.772-0.097 1.158 0 0.048 0 0.145 0.048 0.193 0.048 0.82 0.048 1.303 0.628 1.786 1.16 0.096 0.097 0.144 0.242 0.193 0.387 0.144 0.966 0.241 1.788 0.289 2.609zm-1.351-1.063s-0.048 0 0 0c-0.048-0.193-0.048-0.435-0.048-0.628 0-0.097 0-0.242-0.097-0.29-0.289-0.29-0.579-0.58-0.965-0.677-0.434-0.145-0.917-0.241-1.399 0.097-0.435 0.29-0.724 0.725-0.772 1.256-0.145 0.919 0.241 1.74 1.11 2.127 0.965 0.435 2.123-0.145 2.171-1.305v-0.58z"/>
	<path id="Path" d="m27.36 46.151c0.483-0.097 0.966 0.145 1.448 0.193 0.483 0.048 0.627 0.435 0.531 1.063-0.048 0.338-0.338 0.532-0.772 0.483-0.193 0-0.434-0.048-0.579-0.193-0.145-0.097-0.29-0.097-0.483-0.097-0.772 0.097-1.447 0.822-1.544 1.305-0.096 0.677 0 1.353 0.483 1.885 0.337 0.387 0.82 0.628 1.303 0.628 0.386 0 0.723-0.193 0.916-0.483 0.242-0.29 0.531-0.483 0.821-0.677 0.144-0.096 0.241-0.096 0.289 0.049v0.048c0.241 0.242 0.483 0.435 0.386 0.822-0.096 0.29-0.193 0.579-0.434 0.773-0.097 0.048-0.145 0.145-0.241 0.241-0.579 0.677-1.351 0.774-2.22 0.725-0.386-0.048-0.724-0.145-1.11-0.29-0.675-0.241-1.158-0.676-1.399-1.401-0.193-0.628-0.483-1.208-0.531-1.836-0.048-1.16 0.627-2.61 1.978-3.093 0.145-0.049 0.338-0.097 0.531-0.145h0.627z"/>
	<path id="Path" d="m18.337 48.76c0 0.387 0 0.387-0.338 0.484-0.338 0.096-0.724 0.241-1.062 0.338-0.337 0.096-0.675 0.048-1.013 0.145-0.386 0.096-0.434 0.145-0.386 0.483 0 0.097 0.048 0.193 0.048 0.29 0 0.193 0.097 0.193 0.242 0.193 0.579-0.145 1.109 0 1.688 0.049 0.242 0 0.387 0.048 0.435 0.29 0.048 0.241-0.048 0.483-0.29 0.628-0.145 0.048-0.241 0.096-0.386 0.096-0.434 0.049-0.868 0.194-1.303 0.339-0.096 0.048-0.144 0.048-0.144 0.145-0.049 0.58 0.337 0.918 0.916 0.87 0.145 0 0.338-0.097 0.483-0.097 0.434-0.048 0.82-0.048 1.255-0.048 0.241 0 0.289 0.048 0.289 0.29 0 0.193 0.048 0.338 0.048 0.531 0.049 0.435 0.049 0.387-0.386 0.483-0.627 0.145-1.254 0.145-1.833 0.242-0.386 0.048-0.724 0.145-1.11 0.193-0.483 0.097-0.724-0.096-0.772-0.58-0.097-0.821-0.193-1.594-0.338-2.416-0.145-0.773-0.097-1.546-0.097-2.319 0-0.145 0.049-0.29-0.048-0.435-0.048-0.097-0.145-0.242-0.048-0.339 0.096-0.096 0.193-0.193 0.338-0.193 0.724-0.048 1.447-0.193 2.171-0.242 0.338 0 0.676-0.048 1.014-0.096 0.337-0.049 0.482 0.048 0.53 0.338 0.049 0.097 0.049 0.193 0.097 0.338z"/>
	<path id="Path" d="m19.784 49.147c0-0.338 0-0.677-0.144-1.015-0.049-0.145 0-0.242 0.096-0.338 0.097-0.097 0.241-0.145 0.338-0.194 0.483-0.241 1.013 0.049 1.062 0.58 0.048 1.257 0.434 2.513 0.579 3.77 0.048 0.435 0.096 0.435 0.53 0.435 0.338 0 0.676-0.049 1.014-0.145 0.096-0.049 0.241 0 0.338-0.049 0.434-0.145 0.675 0.194 0.965 0.435 0.193 0.194 0 0.677-0.242 0.774-0.482 0.193-0.965 0.338-1.447 0.434-0.628 0.049-1.303 0.097-1.93 0.29-0.097 0-0.145 0.049-0.242 0.049-0.144 0-0.193 0-0.241-0.194-0.048-0.435-0.145-0.869-0.241-1.256-0.193-0.822-0.193-1.643-0.338-2.465-0.097-0.435-0.097-0.773-0.097-1.111z"/>
	<path id="Path" d="m49.702 15.947c-0.627-0.048-1.254-0.145-1.881 0-0.724 0.145-1.448 0.242-2.124 0.484-0.096 0.048-0.193 0.048-0.337 0-0.049-0.049-0.097-0.097-0.194-0.097-0.579-0.145-0.675-0.822-0.289-1.256 0.579-0.677 1.255-1.064 2.123-1.16 0.821-0.097 1.689-0.049 2.509-0.049 0.628 0 1.207 0.194 1.786 0.339 0.531 0.193 0.82 0.87 0.627 1.401-0.096 0.242-0.289 0.338-0.627 0.338h-1.593z"/>
	<path id="Path" d="m56.699 14.208c0.917-0.049 1.882 0.096 2.847 0.29 0.242 0.048 0.579 0.145 0.724 0.29 0.242 0.241 0.483 0.483 0.531 0.821v0.193c0.097 0.532-0.193 0.87-0.772 0.87-0.29 0-0.531-0.048-0.772-0.096-0.82-0.242-1.689-0.339-2.509-0.29-0.724 0-1.448 0-2.172 0.145-0.193 0.048-0.482-0.145-0.482-0.435-0.049-0.29-0.049-0.58-0.097-0.87 0-0.145 0-0.242 0.145-0.338 0.338-0.242 0.675-0.484 1.11-0.484 0.482-0.048 0.868-0.096 1.447-0.096z"/>
	<path id="Shape" d="m58.871 19.427c0 0.531-0.193 1.015-0.724 1.256-0.483 0.242-1.013 0.194-1.448-0.145-0.434-0.338-0.579-0.821-0.482-1.401 0-0.048 0.048-0.145 0.048-0.193 0.048-0.145 0-0.242-0.145-0.194-0.289 0.049-0.627 0-0.917 0.145-0.096 0.049-0.144 0.049-0.241 0.097-0.289 0.048-0.531-0.097-0.627-0.387-0.048-0.29 0.096-0.58 0.434-0.628 1.448-0.193 2.847-0.29 4.295-0.097 0.482 0.097 0.965 0.242 1.399 0.484 0.242 0.096 0.338 0.29 0.29 0.483s-0.241 0.338-0.483 0.338c-0.145 0-0.289-0.048-0.386-0.096-0.241-0.097-0.482-0.194-0.82-0.145-0.193 0.048-0.29 0.096-0.241 0.338 0.048 0.048 0.048 0.048 0.048 0.145zm-0.917-0.338c0-0.29-0.29-0.532-0.579-0.532-0.29 0-0.531 0.242-0.531 0.58 0 0.29 0.29 0.531 0.579 0.531 0.29-0.048 0.531-0.338 0.531-0.579z"/>
	<path id="Shape" d="m49.172 17.59c0.627 0 1.158 0.049 1.64 0.097 0.386 0.048 0.772 0.193 1.11 0.338s0.386 0.725 0.097 0.919c-0.193 0.145-0.435 0.048-0.628-0.097-0.241-0.193-0.53-0.29-0.82-0.338-0.338-0.049-0.386 0-0.289 0.29 0.096 0.29 0.096 0.628-0.049 0.918-0.241 0.58-0.868 0.918-1.496 0.821-0.627-0.096-1.11-0.676-1.11-1.305v-0.144c0.049-0.435 0-0.484-0.386-0.339-0.337 0.097-0.723 0.097-1.061 0.29-0.241 0.145-0.483 0-0.579-0.29-0.097-0.193 0-0.435 0.241-0.58 0.193-0.096 0.386-0.145 0.579-0.193 0.965-0.242 1.882-0.483 2.751-0.387zm0.241 1.257c0-0.338-0.29-0.58-0.627-0.532-0.29 0-0.531 0.29-0.531 0.58 0 0.338 0.289 0.58 0.627 0.532 0.29 0 0.531-0.29 0.531-0.58z"/>
	<path id="Shape" d="m52.453 25.709c0.965 0 1.978 0 2.944 0.048h0.289c0.434 0.049 0.531 0.29 0.434 0.677-0.144 0.387-0.434 0.677-0.723 0.966-0.242 0.242-0.483 0.484-0.676 0.774-0.29 0.386-0.676 0.725-1.11 0.87-0.338 0.096-0.627 0.338-1.013 0.338-0.772 0.048-1.448-0.193-1.979-0.773-0.337-0.387-0.627-0.87-0.965-1.257-0.241-0.241-0.434-0.58-0.675-0.821-0.145-0.145-0.193-0.339-0.145-0.532 0.096-0.193 0.289-0.193 0.434-0.242 1.014-0.048 2.075-0.048 3.185-0.048zm-2.22 0.967c0 0.145 0.049 0.193 0.097 0.241 0.338 0.29 0.627 0.58 0.917 0.967 0.144 0.241 0.337 0.483 0.627 0.531 0.579 0.145 1.11 0.097 1.641-0.29 0.386-0.29 0.723-0.628 1.061-1.014 0.097-0.145 0.29-0.242 0.386-0.484-1.64 0-3.136 0-4.729 0.049z"/>
</svg>