<svg xmlns="http://www.w3.org/2000/svg">
	<path id="Shape" d="m37.687 63.886c0.483 0.483 0.772 1.063 1.303 1.498 0.627 0.532 1.255 1.112 1.834 1.692 0.193 0.193 0.289 0.241 0.53 0.096 0.579-0.29 1.207-0.435 1.834-0.435 0.724 0 1.496 0.097 2.22 0.097 0.289 0 0.531 0.145 0.772 0.242 0.627 0.29 1.303 0.338 1.882 0.724 0.096 0.049 0.193 0.097 0.241 0.097 0.82 0.048 1.641 0.242 2.413 0.145 2.316-0.242 4.632-0.145 6.948-0.097 1.352 0.049 2.751 0 4.102 0h5.163 2.268c2.124 0.049 4.247 0.049 6.37 0.049h4.246c0.676 0 1.11 0.531 1.207 1.256 0.145 1.015-0.193 1.982-0.338 2.996-0.29 1.885-0.627 3.721-0.917 5.606-0.338 2.03-0.724 4.059-0.917 6.137-0.048 0.387-0.144 0.725-0.241 1.064-0.145 0.628-0.772 1.014-1.448 1.014-3.281 0.145-6.562-0.145-9.844-0.048-0.723 0-1.495 0-2.219 0.145-0.386 0.097-0.821-0.193-1.158 0.145-0.29 0.29-0.483 0.628-0.676 0.967-0.772 1.304-1.641 2.513-2.316 3.817-0.193 0.339-0.386 0.532-0.821 0.484-0.482-0.049-1.013 0-1.544 0-0.096-0.242 0.097-0.387 0.193-0.58 0.579-0.919 1.11-1.885 1.738-2.755 0.579-0.821 1.013-1.691 1.495-2.561 0.338-0.58 0.579-1.208 0.869-1.788 0.145-0.29 0-0.532-0.145-0.773-0.386-0.677-0.965-1.16-1.544-1.643-0.675-0.58-1.448-1.112-2.268-1.45-0.386-0.145-0.724-0.145-1.11 0.048-1.158 0.58-2.316 1.208-3.426 1.836-1.303 0.725-2.606 1.402-3.86 2.078-0.145 0.097-0.338 0.145-0.483 0.194-0.434 0.193-0.482 0.193-0.289 0.628 0.434 1.256 0.772 2.561 1.11 3.866 0.241 0.87 0.386 1.74 0.482 2.61 0.048 0.29 0 0.386-0.289 0.435-0.145 0-0.29 0-0.483 0.048-0.772 0.145-0.676 0.145-0.917-0.58-0.193-0.725-0.434-1.401-0.724-2.078-0.289-0.677-0.434-1.401-0.627-2.126-0.482-1.498-1.062-2.997-1.641-4.446-0.386-0.967-0.675-1.982-1.061-2.948-0.869-2.175-1.737-4.301-2.847-6.331-0.386-0.725-0.869-1.45-1.255-2.223-0.193-0.483-0.579-0.821-0.917-1.208-1.11-1.256-2.171-2.561-3.426-3.673-0.434-0.386-0.868-0.821-1.303-1.256-0.144-0.097-0.241-0.242-0.386-0.338-0.82-0.532-1.64-1.16-2.557-1.643-1.979-1.112-4.054-2.03-6.129-2.948-1.495-0.677-3.088-0.967-4.68-1.257-1.062-0.193-2.124-0.29-3.233-0.386-0.435-0.049-0.821-0.049-1.158 0.193-1.207 0.822-2.461 1.498-3.62 2.32-1.061 0.725-2.026 1.643-3.136 2.271s-1.9304 1.546-2.8954 2.32c-0.4343 0.338-0.8686 0.579-1.1582 1.063-0.193 0.386-0.4343 0.725-0.6755 1.111-0.6756 1.063-1.2064 2.175-1.7855 3.286-0.9651 1.837-1.7854 3.673-2.847 5.461-0.193 0.338-0.2413 0.387-0.4825 0-0.1448-0.242-0.28957-0.435-0.43433-0.676-0.24128-0.435-0.28953-0.919-0.14477-1.45 0.38604-1.16 1.0616-2.175 1.5442-3.238 0.193-0.483 0.4342-0.918 0.579-1.401 0.0483-0.145 0.1448-0.339 0.2413-0.484 1.0133-1.498 1.9302-3.093 2.9918-4.542 0.2413-0.339 0.5308-0.677 0.8686-0.919 0.4343-0.338 0.8203-0.773 1.3029-1.063 0.772-0.531 1.5924-0.966 2.3644-1.498 2.027-1.401 4.102-2.609 6.177-3.914 0.868-0.58 1.592-1.257 1.833-2.32 0.097-0.531 0.435-1.015 0.676-1.449 0.193-0.29 0.289-0.629 0.338-0.967 0.144-0.677 0.289-1.353 0.482-2.03 0.048-0.29 0-0.386-0.289-0.531-0.917-0.387-1.737-0.967-2.365-1.74-0.434-0.532-1.013-0.918-1.399-1.498-0.917-1.305-1.593-2.706-2.075-4.253-0.386-1.304-0.531-2.609-0.434-3.914 0.096-1.208 0.386-2.465 0.82-3.624 0.193-0.484 0.338-1.015 0.434-1.499 0.193-0.821 0.628-1.498 1.158-2.126 0.676-0.773 1.255-1.643 1.834-2.561 0.097-0.145 0.145-0.242 0.048-0.387-0.145-0.29-0.145-0.628-0.145-0.966 0-1.305 0-2.61-0.096-3.915 0-0.241 0-0.483 0.048-0.676 0.242-1.402 0.193-2.803 0.097-4.204-0.049-1.015 0-0.87 0.82-0.87 1.689 0 3.378 0 5.067 0.048 1.592 0.048 3.185-0.048 4.825 0 2.075 0.048 4.198-0.097 6.273 0.097h0.338c0.193 0 0.338 0.096 0.29 0.338v1.595c0 0.241-0.097 0.338-0.338 0.29-0.193 0-0.338 0-0.531-0.049-1.399-0.096-2.847-0.096-4.246 0-0.676 0.049-1.303-0.048-1.979-0.048-1.11 0-2.219 0.048-3.281 0-1.448 0-2.847-0.097-4.295-0.145-0.434 0-0.434 0-0.482 0.387-0.049 0.628-0.049 1.304-0.049 1.933 0.049 1.208 0.049 2.416-0.048 3.624 0 0.242-0.048 0.435 0.048 0.725 0.531-0.29 1.014-0.58 1.545-0.87 1.206-0.58 2.412-1.16 3.764-1.208 0.579 0 1.206-0.145 1.785-0.097 0.482 0 0.82-0.096 1.11-0.531 0.531-0.822 1.351-1.353 2.316-1.498 1.641-0.29 2.944 0.29 3.957 1.546 0.193 0.242 0.386 0.532 0.434 0.822 0.145 0.628 0.531 0.869 1.11 1.014 0.627 0.194 1.255 0.387 1.834 0.774 1.544 1.014 2.943 2.223 3.957 3.769 0.627 0.967 1.206 1.981 1.689 3.045 0.144 0.338 0 0.724 0.144 1.063 0.049 0.145-0.096 0.241-0.241 0.29-0.145 0.048-0.289 0-0.338-0.145-0.193-0.29-0.338-0.58-0.531-0.822-1.158-1.691-2.412-3.286-3.908-4.687-0.917-0.87-1.93-1.692-3.233-1.982-0.145 0.145-0.145 0.387-0.193 0.58-0.483 2.078-2.316 3.48-4.391 3.238-1.545-0.193-2.944-1.45-3.378-3.093-0.097-0.338-0.145-0.676-0.145-1.015 0-0.29-0.145-0.386-0.434-0.386-0.772 0-1.544 0.048-2.317 0.338-0.868 0.338-1.737 0.677-2.557 1.015-0.965 0.435-1.785 1.015-2.461 1.884-0.386 0.532-0.869 0.967-1.206 1.499-1.11 1.594-2.027 3.286-2.606 5.122-0.241 0.725-0.29 1.546-0.241 2.368 0.096 1.788 0.434 3.576 1.013 5.267 0.241 0.725 0.531 1.402 1.061 1.885 0.676 0.58 1.303 1.208 2.027 1.74 0.579 0.386 1.062 0.918 1.689 1.208 0.434 0.193 0.386 0.29 0.241 0.773-0.193 0.773-0.289 1.547-0.386 2.271v0.29c0.049 0.387 0.145 0.435 0.531 0.532s0.724 0.048 1.11 0.048c1.206 0.049 2.413 0.097 3.619 0.29 1.496 0.194 2.944 0.58 4.343 1.208 0.434 0.194 0.869 0.387 1.351 0.58 0.338 0.145 0.386 0.097 0.483-0.241 0.241-0.725 0.531-1.402 0.675-2.175 0.145-0.58 0.338-1.208 0.676-1.74 0.048-0.096 0.145-0.241 0.241-0.338 0.338-0.387 1.013-0.532 1.448-0.29 0.241 0.097 0.241 0.29 0.193 0.483-0.097 0.484-0.193 0.967-0.29 1.498-0.096 0.532-0.144 0.532 0.338 0.725 0.531 0.242 1.062 0.484 1.689 0.435 0.627-0.048 1.11-0.241 1.399-0.87 0.193-0.435 0.628-0.724 0.821-1.159 0.675-1.354 1.351-2.707 1.833-4.156 0.483-1.402 0.676-2.852 0.29-4.35-0.145-0.483-0.241-1.014-0.386-1.498-0.048-0.193-0.145-0.435-0.241-0.58-0.29-0.386-0.242-0.725-0.049-1.159 0-0.049 0.049-0.097 0.049-0.097 0.53-0.628 0.386-1.257 0.193-1.981-0.29-1.064-0.821-1.982-1.352-2.948-0.193-0.387-0.241-0.58-0.048-0.725 0.193-0.193 0.483-0.193 0.821 0 1.544 1.063 2.364 2.513 2.412 4.397 0 0.677-0.337 1.257-0.627 1.885-0.145 0.29-0.145 0.532 0 0.822 0.386 1.014 0.917 1.981 1.11 3.092 0.145 0.822 0.145 1.644-0.145 2.417-0.531 1.45-1.062 2.851-1.834 4.204-0.386 0.677-0.675 1.401-1.013 2.078-0.193 0.387-0.434 0.773-0.869 0.967-0.386 0.145-0.579 0.579-0.916 0.821-0.821 0.532-1.641 0.628-2.51 0.29-0.53-0.193-0.965-0.435-1.447-0.822-0.242 0.484-0.386 0.919-0.531 1.402-0.145 0.532-0.097 1.111-0.338 1.643-0.096 0.145 0.048 0.242 0.145 0.338 0.386 0.629 0.772 1.208 1.158 1.837 0.434 0.725 0.869 1.401 0.965 2.271 0.048 0.242 0.193 0.29 0.434 0.29 0.821-0.048 1.641-0.097 2.461-0.097 1.448 0.049 2.896 0 4.343 0.097 0.869 0.048 1.738 0.048 2.606 0 1.399-0.048 2.847-0.048 4.247 0.048 0.772 0.049 1.544 0 2.364 0 1.206 0.049 2.413 0.097 3.619 0.145h2.751 7.865c1.641 0 3.33 0 4.97 0.049 1.496 0.048 3.04 0.048 4.536 0.048 1.255 0 2.51 0 3.764 0.048 0.435 0 0.869-0.048 1.255-0.048 0.434-0.048 0.434-0.048 0.434-0.483 0-1.402 0.048-2.852 0.048-4.253 0-2.465 0-4.978-0.048-7.442v-0.387c0-0.145 0.048-0.241 0.193-0.241 0.579-0.097 1.062-0.387 1.593-0.58 0.386-0.194 0.434-0.145 0.434 0.29 0 1.933 0.048 3.866 0.048 5.847 0 2.561-0.048 5.171-0.096 7.732 0 1.305-0.435 1.788-1.738 1.74-1.881 0-3.763-0.097-5.645-0.145h-2.847c-2.22-0.097-4.44-0.097-6.66-0.097-1.544 0-3.136 0.048-4.68 0-2.172 0-4.343 0.048-6.515 0.048-1.978 0-3.957 0-5.935-0.048-0.724 0-1.448-0.048-2.22 0-0.531 0-1.061-0.048-1.64-0.048-0.869 0-1.689 0.145-2.558 0.145-1.206 0-2.461 0.096-3.667 0-0.579-0.049-1.158-0.097-1.737-0.145 0.096 0.241-0.242 0.241-0.676 0.338zm12.546 5.896c0.097 0.145 0.145 0.193 0.193 0.241 1.014 0.87 1.93 1.885 3.089 2.562 0.675 0.386 0.82 0.918 0.723 1.594-0.048 0.242-0.144 0.387-0.386 0.435-0.337 0.097-0.675 0.194-1.013 0.097-0.676-0.097-1.351-0.048-2.027-0.145-0.193-0.048-0.289 0.048-0.289 0.242v0.29c-0.048 0.676-0.435 1.063-1.062 1.208-0.482 0.145-0.965 0.048-1.399-0.097-0.531-0.193-1.11-0.387-1.689-0.58 0.048 0.338 0.193 0.628 0.289 0.87 0.628 1.401 1.255 2.755 1.786 4.156 0.193 0.483 0.386 1.015 0.627 1.498 0.097 0.242 0.193 0.242 0.434 0.145 1.11-0.483 2.268-1.015 3.427-1.45 1.64-0.676 3.329-1.353 4.777-2.464 0.193-0.145 0.241-0.242 0.145-0.435-0.194-0.387-0.435-0.773-0.628-1.208-0.241-0.629-0.386-1.257-0.289-1.933 0.048-0.435-0.145-0.822-0.049-1.257 0.145-0.58 0.338-1.16 0.579-1.691 0.145-0.29 0.338-0.483 0.676-0.58 0.917-0.193 1.834-0.483 2.751 0 0.53 0.29 1.013 0.242 1.495-0.193 0.338-0.29 0.724-0.29 1.159-0.145 0.386 0.193 0.772 0.338 1.158 0.58 0.337 0.193 0.675 0.241 1.061 0.145 0.821-0.194 1.689-0.194 2.51-0.145 0.434 0 0.723 0.193 1.013 0.483 0.917 0.966 1.592 2.126 2.027 3.431 0.096 0.242 0.096 0.435 0.096 0.676 0 0.87-0.772 1.354-1.399 1.499-0.242 0.048-0.531 0-0.628-0.29-0.144-0.29 0.049-0.435 0.242-0.58 0.241-0.145 0.289-0.387 0.289-0.629 0-0.241-0.048-0.434-0.145-0.628-0.289-0.676-0.723-1.256-1.109-1.884-0.097-0.145-0.242-0.29-0.435-0.387-0.868-0.483-1.785-0.532-2.702-0.193-0.676 0.241-1.206 0.145-1.737-0.387-0.434-0.483-0.917-0.483-1.448-0.145-0.096 0.048-0.241 0.145-0.338 0.242-0.241 0.193-0.434 0.193-0.772 0.096-0.53-0.193-1.11-0.29-1.689-0.338-0.675-0.048-1.061 0.29-1.061 1.015 0 0.531 0.048 1.015 0.241 1.498 0.145 0.29 0.241 0.532 0.29 0.821 0.193 0.822 0.337 1.595 0.772 2.368 0.144 0.29 0.337 0.484 0.675 0.58 0.531 0.145 0.965 0.387 1.4 0.677 0.772 0.483 1.447 1.111 1.978 1.836 0.097 0.097 0.145 0.29 0.338 0.29 0.675 0.049 1.206-0.145 1.592-0.725 0.242-0.386 0.386-0.821 0.435-1.256 0.048-0.677 0.096-1.402 0.144-2.078 0-0.483-0.048-1.015-0.193-1.498-0.193-0.483-0.096-0.967-0.048-1.45 0.097-0.435 0.386-0.58 0.82-0.483 0.531 0.145 0.772 0.58 0.821 1.015 0.096 0.821 0.193 1.691 0.193 2.561-0.048 0.676-0.145 1.401-0.193 2.078-0.193 1.498-0.821 2.754-2.075 3.576-0.097 0.048-0.241 0.145-0.193 0.242 0.048 0.241 0 0.434 0 0.676 0 0.048 0.096 0.097 0.145 0.048 0.675-0.145 1.351 0.097 2.074 0.049 1.11-0.049 2.22-0.145 3.282-0.145 1.303 0 2.606 0.048 3.908 0.048h1.979c0.193 0 0.338-0.048 0.338-0.29 0-0.097 0.048-0.241 0.048-0.338 0.145-1.015 0.338-1.981 0.482-2.996 0.194-1.257 0.387-2.513 0.58-3.77 0.144-0.87 0.289-1.739 0.434-2.561 0.241-1.305 0.434-2.658 0.675-3.963 0.049-0.386-0.048-0.58-0.434-0.531-0.338 0.048-0.675 0-1.013 0-1.641-0.049-3.233-0.049-4.874-0.097h-2.268c-1.496 0-2.992-0.096-4.488-0.048-1.544 0.048-3.04 0-4.584 0-2.22 0.048-4.488 0-6.707-0.048-0.676 0-1.351-0.049-2.027 0.048-0.483 0.048-1.013 0.048-1.496 0.048-0.531 0.145-0.868 0-1.303 0.097zm-14.573-7.539c-0.144-0.532-0.386-0.966-0.579-1.305-0.772-1.208-1.592-2.416-2.461-3.576-0.579-0.725-1.254-1.208-2.123-1.546-1.062-0.387-2.123-0.725-3.233-0.87-1.013-0.097-1.978-0.435-3.04-0.483-1.062-0.049-2.075-0.097-3.137-0.145-0.144 0-0.386-0.049-0.482 0.145-0.145 0.241-0.338 0.531-0.386 0.773-0.048 0.338-0.145 0.58-0.29 0.87-0.193 0.29-0.145 0.338 0.242 0.386 0.965 0.049 1.93 0.097 2.895 0.29 1.544 0.339 3.088 0.725 4.584 1.305 1.11 0.435 2.123 1.015 3.185 1.498 1.64 0.725 3.233 1.547 4.825 2.658zm8.397 5.847c-0.29 0.049-0.676 0.097-1.062 0.145-0.579 0.097-0.724 0.484-0.338 0.967 0.193 0.242 0.338 0.483 0.483 0.725 0.241 0.435 0.482 0.821 0.724 1.256 0.337 0.532 0.675 1.015 0.916 1.595 0.145 0.338 0.338 0.677 0.531 1.015 0.097 0.241 0.242 0.29 0.483 0.338 0.724 0.145 1.447 0.338 2.075 0.773 0.193 0.145 0.434 0.194 0.627 0.29 0.193 0.097 0.386 0.097 0.531-0.096 0.145-0.194 0.096-0.387 0-0.532-0.048-0.097-0.145-0.193-0.241-0.29-0.435-0.338-0.821-0.725-1.207-1.063-0.434-0.387-0.868-0.725-1.303-1.063-0.193-0.145-0.289-0.387-0.193-0.628 0.145-0.242 0.338-0.29 0.628-0.194 0.144 0.049 0.289 0.097 0.434 0.194 0.289 0.193 0.531 0.434 0.82 0.628 0.579 0.531 1.207 1.063 2.027 1.208s1.592 0.242 2.413 0.435c0.241 0.048 0.434 0 0.531-0.242 0.096-0.241-0.097-0.386-0.29-0.483-0.193-0.145-0.483-0.145-0.627-0.387-0.097-0.241-0.338-0.29-0.531-0.435-0.772-0.483-1.593-0.918-2.268-1.594-0.241-0.242-0.483-0.532-0.772-0.677-0.627-0.242-1.062-0.725-1.641-1.111-0.917-0.435-1.689-0.725-2.75-0.774zm-9.7-41.511c0-0.58-0.193-1.208-0.627-1.74-1.062-1.45-3.04-1.45-4.102 0-0.868 1.16-0.82 2.851 0.145 3.963 1.014 1.16 2.654 1.256 3.764 0.145 0.531-0.628 0.82-1.353 0.82-2.368z"/>
	<path id="Shape" d="m48.014 13.676c0.144-0.097 0.193-0.242 0.241-0.387 4.005-6.9584 9.94-11.259 17.806-12.661 11.919-2.1261 23.259 4.3495 27.795 15.029 0.965 2.32 1.592 4.785 1.833 7.298 0.869 9.181-3.378 17.638-10.471 22.664-0.676 0.483-1.303 1.015-2.027 1.402-0.868 0.483-1.785 1.014-2.702 1.304-1.93 0.677-3.86 1.353-5.887 1.643-7.817 1.112-14.814-0.724-20.798-5.895-4.488-3.866-7.238-8.795-8.3-14.643-0.144-0.773-0.241-1.595-0.289-2.368 0-0.386-0.049-0.435-0.435-0.386-2.026 0.193-3.86-0.339-5.356-1.74-1.544-1.402-2.268-3.141-2.316-5.219s0.627-3.866 2.123-5.364c2.22-2.223 5.549-2.61 8.252-0.919 0.193 0.049 0.289 0.194 0.531 0.242zm8.734 18.992c-0.097-0.048-0.145-0.048-0.242-0.048-1.254 0.435-2.509 0.435-3.812 0.338-0.338-0.048-0.675-0.097-1.013-0.242-0.82-0.29-1.255-0.918-1.737-1.546-0.29-0.387-0.531-0.773-0.579-1.257-0.097-0.628 0-0.821 0.723-0.869 0.145 0 0.29 0.048 0.387 0.096 1.447 0.435 2.895 0.242 4.342-0.145 0.29-0.096 0.483-0.241 0.531-0.58 0.097-1.015 0.483-1.981 0.676-2.996 0.048-0.193 0.096-0.435 0.193-0.58 0.531-0.773 0.82-1.691 1.11-2.561 0.241-0.677 0.434-1.45-0.049-2.175-0.434-0.725-0.675-1.449-0.723-2.319-0.049-0.677-0.145-1.353 0.096-1.982 0.531-1.546 1.303-3.044 2.075-4.494 0.386-0.676 0.82-1.353 1.303-1.9812 0.434-0.6282 0.965-1.1598 1.399-1.7397 0.628-0.7732 1.448-1.1115 2.365-1.1598 1.93-0.0967 3.86 0 5.79 0.3866 1.352 0.2899 2.703 0.1933 4.054 0.3866 0.531 0.0483 0.531 0.0483 0.724-0.4349 0.193-0.3867 0.337-0.8216 0.53-1.2082 0.435-0.7249 1.159-1.0148 1.834-1.4014 0.29-0.145 0.434-0.4833 0.772-0.5799 0.338-0.0967 0.483-0.3866 0.676-0.6283-0.048-0.0483-0.097-0.0966-0.097-0.0966-0.144-0.0483-0.289-0.0967-0.434-0.145-3.716-1.1598-7.528-1.4014-11.34-0.6765-7.528 1.4014-13.173 5.5091-16.937 12.178-0.242 0.386-0.242 0.676 0.048 1.063 2.654 3.624 1.496 8.698-2.461 10.776-0.338 0.194-0.434 0.387-0.386 0.725 0.145 1.643 0.386 3.286 0.82 4.881 2.702 9.569 11.292 16.576 21.184 17.301 4.391 0.338 8.589-0.484 12.546-2.368 0.435-0.194 0.821-0.484 1.207-0.677 0.579-0.338 1.158-0.628 1.689-1.015 2.075-1.353 3.86-3.044 5.356-4.977 3.136-4.011 4.825-8.506 5.018-13.58 0-0.193 0.049-0.435-0.048-0.628-0.289 0.048-0.386 0.242-0.482 0.483-0.097 0.435-0.29 0.822-0.483 1.208-0.82 1.547-1.448 3.19-2.22 4.736-0.289 0.532-0.337 1.16-0.675 1.643-0.724 1.015-1.641 1.74-2.944 1.837-0.386 0.048-0.772 0.048-1.158 0.096-0.82 0.097-1.255 0.532-1.351 1.354-0.097 1.063-0.531 1.981-0.965 2.899-0.29 0.677-0.772 1.16-1.448 1.45-0.675 0.29-1.351 0.676-1.93 1.208-0.29 0.29-0.627 0.483-1.013 0.532-0.724 0.096-1.496 0.193-2.268 0.338-0.29 0.048-0.531-0.097-0.676-0.338-0.289-0.435-0.627-0.822-1.013-1.209-0.097-0.096-0.193-0.193-0.241-0.338-0.242-0.821-0.724-1.546-1.014-2.368-0.338-0.966-0.724-1.933-0.917-2.948-0.048-0.29-0.096-0.628-0.241-0.918-0.386-0.87-0.434-1.74-0.579-2.658-0.097-0.676-0.145-1.305 0.096-1.981 0.242-0.677 0.242-1.45 0.435-2.175 0.338-1.304 0.675-2.561 1.206-3.817 0.627-1.547 1.448-2.997 2.123-4.495 0.193-0.435 0.242-0.87 0.097-1.304-0.193-0.532-0.434-1.064-0.724-1.595-0.386-0.58-0.338-1.208-0.193-1.837 0.29-0.966 0.772-1.836 1.255-2.754 0.386-0.725 0.965-1.015 1.64-1.16 0.579-0.097 1.11-0.338 1.544-0.725 0.387-0.29 0.821-0.29 1.255-0.241 0.29 0 0.386 0.193 0.29 0.483-0.145 0.386-0.338 0.725-0.724 0.966-0.724 0.435-1.4 0.919-2.22 1.257-0.193 0.048-0.289 0.193-0.338 0.386-0.193 0.58-0.482 1.16-0.772 1.692-0.289 0.531-0.386 1.015 0.097 1.498 0.096 0.097 0.096 0.242 0.193 0.386 0.145 0.339 0.241 0.677 0.482 1.015 0.531 0.822 0.531 1.643 0.049 2.513-0.869 1.643-1.689 3.335-2.51 4.978-0.289 0.58-0.53 1.208-0.675 1.836-0.145 0.822-0.386 1.643-0.483 2.513-0.096 0.628-0.241 1.256-0.241 1.885 0 1.739 0.386 3.382 0.917 5.026 0.145 0.531 0.386 1.063 0.434 1.643 0.048 0.29 0.145 0.628 0.386 0.821 0.338 0.29 0.434 0.677 0.579 1.063 0.338 1.015 1.351 1.402 2.268 0.822 0.772-0.483 1.544-0.967 2.316-1.402 0.242-0.145 0.435-0.29 0.628-0.435 0.53-0.434 0.917-1.014 1.013-1.691 0.097-0.531 0.241-1.111 0.097-1.691-0.145-0.774 0.241-1.208 0.868-1.498 0.145-0.049 0.29-0.145 0.434-0.194 1.014-0.435 2.124-0.773 3.233-0.966 0.387-0.049 0.628-0.242 0.869-0.483 0.386-0.435 0.676-0.919 0.917-1.45 0.531-1.208 1.158-2.416 1.689-3.673 0.338-0.725 0.772-1.401 1.013-2.175 0.29-0.918 0.821-1.691 1.737-2.174 0.193-0.097 0.338-0.242 0.29-0.532-0.097-0.483-0.097-1.015-0.193-1.498-1.496-7.925-5.887-13.724-13.029-17.397-0.145-0.0967-0.338-0.145-0.482-0.2416-0.194-0.0967-0.29-0.0484-0.338 0.1449-0.193 0.3866-0.435 0.6766-0.676 1.0149-0.145 0.1933-0.338 0.2416-0.579 0.2899-0.868 0.0483-1.641 0.29-2.316 0.9182-0.145 0.145-0.241 0.2899-0.241 0.4833 0 0.3866 0.048 0.7248 0.096 1.1114 0.048 0.145 0.097 0.3383-0.096 0.4833-0.628 0.4832-1.303 0.9182-2.124 0.5799-0.289-0.0967-0.579-0.145-0.868-0.0967-0.869 0.145-1.786 0.0967-2.654 0.145-0.772 0.0483-1.593-0.0966-2.365-0.0483-0.434 0-0.917 0-1.303-0.145-0.53-0.1933-1.061-0.1933-1.592-0.1933-0.917-0.0483-1.785 0.3383-2.654 0.4833-0.241 0.0483-0.338 0.1933-0.483 0.3866-0.965 1.1602-1.833 2.4162-2.605 3.7692-0.579 1.063-1.11 2.126-1.4 3.335-0.096 0.483-0.096 0.918 0 1.353 0.145 0.435 0.29 0.87 0.531 1.304 0.29 0.484 0.434 0.967 0.434 1.547 0 1.353-0.337 2.609-0.868 3.818-0.483 1.111-1.11 2.126-1.062 3.431 0 0.145 0.048 0.338 0 0.435-0.096 0.29 0 0.483 0.193 0.725 0.386 0.628 0.724 1.304 0.579 2.029-0.096 0.483 0 0.918 0.145 1.353 0.097 0.29 0.145 0.58 0.193 0.87 0.048 0.338 0.097 0.628 0.241 0.967 0.531 1.401 0.965 2.803 1.496 4.204 0.772 2.03 1.834 3.818 3.426 5.219 0.821 0.725 1.738 1.015 2.847 0.773 0.917-0.193 1.689-0.628 2.365-1.304 0.193-0.194 0.338-0.339 0.434-0.58 0.531-1.305 0.579-2.658 0.386-4.06-0.241-1.788-0.917-3.479-1.64-5.122-0.097-0.194-0.193-0.194-0.338-0.145-0.724 0.241-1.351 0.628-2.123 0.821-0.193 0.049-0.242 0.194-0.242 0.387-0.048 0.338 0.097 0.677 0.145 1.015 0.193 1.208 0.386 2.368 0.82 3.479 0.242 0.532 0.242 0.532 0.821 0.435 0.289-0.048 0.579 0.097 0.579 0.387s0.048 0.58-0.145 0.821c-0.434 0.725-1.737 0.725-2.22 0.049-0.579-0.822-1.013-1.643-1.206-2.61-0.048-0.338-0.145-0.677-0.29-1.015-0.096-0.241-0.144-0.483-0.144-0.725 0-0.628-0.145-1.208-0.145-1.788 0-0.193-0.097-0.338-0.29-0.338-0.482 0-0.917-0.193-1.303-0.435-0.627-0.435-1.302-0.87-1.737-1.498-0.338-0.483-0.338-1.063-0.096-1.546 0.241-0.484 0.772-0.387 1.206-0.339h0.193c0.917 0.145 1.834-0.048 2.702-0.29 0.435-0.096 0.869-0.241 1.255-0.483 0.676-0.483 1.448-0.531 2.22-0.435 0.482 0.048 1.013 0.048 1.158 0.677 0.048 0.145 0.193 0.193 0.338 0.193 0.193-0.048 0.289-0.145 0.289-0.338 0-0.145 0-0.29-0.048-0.387-0.097-0.58-0.29-1.111-0.531-1.595-0.434-0.869-0.482-1.788-0.434-2.706 0.048-0.725 0.241-1.401 0.772-1.981 0.241-0.29 0.531-0.387 0.917-0.387 0.241 0 0.531 0 0.675 0.29 0.145 0.29 0 0.532-0.193 0.725-0.241 0.242-0.338 0.532-0.434 0.87-0.29 1.16-0.145 2.271 0.193 3.383 0.241 0.918 0.531 1.836 0.386 2.851-0.048 0.29-0.048 0.58-0.241 0.821-0.145 0.145-0.242 0.29-0.483 0.194-0.096-0.049-0.241-0.097-0.338 0-0.144 0.193-0.289 0.435-0.434 0.676-0.096 0.145 0.048 0.29 0.145 0.435 0.675 1.063 1.11 2.223 1.496 3.383 0.482 1.353 0.675 2.803 0.627 4.253 0 0.483-0.145 0.966-0.145 1.449 0 1.257-0.772 2.223-1.544 3.093-0.482 0.58-1.11 0.87-1.882 0.967-0.144 0-0.289 0-0.386 0.048-0.917 0.387-1.833 0.29-2.75 0.145-0.483-0.097-1.014-0.193-1.4-0.532-1.158-0.918-2.219-1.836-2.991-3.141-0.531-0.918-1.159-1.739-1.593-2.706-0.434-0.966-1.061-1.885-1.11-2.948 0-0.096-0.048-0.145-0.096-0.193-0.242-0.483-0.338-1.015-0.483-1.546-0.338-1.015-0.386-1.837-0.482-2.61zm-18.289-13.145c0 1.45 0.434 2.755 1.399 3.866 2.075 2.465 5.743 2.61 7.963 0.339 2.026-2.078 2.219-5.413 0.482-7.781-2.22-2.996-6.466-2.996-8.686 0-0.772 1.064-1.158 2.272-1.158 3.576zm22.583 12.13c0.579 0.58 1.255 0.918 2.027 1.063s1.544 0.097 2.316-0.096c0.965-0.242 1.882-0.677 2.654-1.305 0.097-0.097 0.242-0.193 0.097-0.338-0.241-0.29-0.483-0.58-0.821-0.677-0.386-0.097-0.675 0.048-0.965 0.29-0.579 0.532-1.303 0.87-2.075 0.966-0.723 0.097-1.496 0.097-2.219-0.048-0.338-0.048-0.628 0-1.014 0.145zm-4.777-1.691c-1.785 0.821-3.619 0.628-5.549 0.193 0.482 0.773 1.013 1.305 1.882 1.353 1.11 0.048 2.219-0.048 3.281-0.193 0.434-0.048 0.627-0.338 0.531-0.773 0-0.145 0-0.339-0.145-0.58z"/>
	<path id="Path" d="m29.484 92.881c-0.193-0.145-0.386-0.29-0.531-0.435-0.29-0.241-0.579-0.531-0.965-0.676-0.241-0.097-0.338-0.29-0.386-0.532-0.097-1.256-0.483-2.464-0.628-3.721-0.144-1.16-0.241-2.319-0.289-3.479-0.048-1.402 0-2.851 0-4.253-0.048-1.063 0.145-2.078 0.193-3.141 0.048-0.483 0.096-0.966 0.145-1.45 0.048-0.241 0.048-0.483 0.144-0.676 0.29-0.629 0.58-1.257 0.869-1.837 0.29-0.531 0.676-0.918 1.351-1.111 0.048 0.531-0.048 1.063-0.145 1.546-0.434 2.513-0.579 5.074-0.482 7.636 0 1.015 0 2.029 0.096 3.044 0.049 0.773 0 1.547 0 2.32 0.049 1.256 0.145 2.464 0.338 3.721 0.145 0.966 0.241 1.933 0.386 2.851-0.048 0.097-0.048 0.145-0.096 0.193z"/>
	<path id="Path" d="m31.124 41.27c0-0.628 0.097-1.063 0.193-1.498 0.29-0.967 0.965-1.45 1.882-1.74 0.483-0.145 0.869 0.145 1.255 0.435 0.193 0.097 0.338 0.29 0.482 0.435 0.145 0.097 0.193 0.242 0.193 0.387 0 0.144 0 0.289-0.096 0.386-0.145 0.097-0.241 0-0.386-0.097-0.145-0.096-0.241-0.241-0.434-0.289-0.531-0.145-0.724-0.049-1.014 0.386-0.434 0.725-0.579 1.498-0.337 2.368 0.193 0.822 0.386 1.691 0.772 2.465 0.386 0.773 0.723 1.643 0.916 2.513 0.049 0.145 0.145 0.29-0.048 0.338-0.145 0.048-0.289-0.048-0.338-0.193-0.144-0.532-0.627-0.87-0.868-1.354-0.193-0.434-0.434-0.869-0.869-1.159-0.241-0.194-0.386-0.484-0.531-0.774-0.386-0.821-0.675-1.788-0.772-2.609z"/>
	<path id="Path" d="m69.921 21.215c-0.289-0.193-0.724 0-1.013-0.29-0.097-0.097-0.193-0.048-0.338 0-0.241 0.048-0.482 0.145-0.724 0.193-0.145 0.049-0.289-0.048-0.386-0.193-0.096-0.145-0.048-0.338 0.048-0.435 0.387-0.435 0.628-0.967 0.966-1.45 0.289-0.386 0.627-0.87 1.254-0.821 0.097 0 0.241 0 0.338 0.096 0.434 0.387 0.965 0.629 1.255 1.16 0.096 0.145 0.193 0.29 0.337 0.435 0.242 0.242 0.145 0.435 0 0.677-0.193 0.241-0.337 0.29-0.579 0.096-0.289-0.193-0.579-0.435-0.917-0.628-0.144-0.097-0.289-0.242-0.386-0.048-0.096 0.193 0.049 0.241 0.193 0.338 0.145 0.097 0.242 0.193 0.338 0.29 0.145 0.097 0.242 0.242 0.145 0.435-0.145 0.145-0.29 0.193-0.531 0.145z"/>
	<path id="Path" d="m73.878 16.624c-0.096 0.29-0.338 0.628-0.579 0.87-0.096 0.096-0.241 0.193-0.338 0.29-0.724 0.531-0.868 0.531-1.544-0.049-0.386-0.338-0.82-0.579-1.158-0.966-0.048-0.097-0.193-0.145-0.145-0.29 0.048-0.097 0.193-0.145 0.338-0.097 0.145 0.049 0.29 0.049 0.434 0.145 0.386 0.145 0.724 0.194 1.158 0.194 0.435 0 0.917 0 1.207-0.387 0.096-0.097 0.241-0.145 0.386-0.048 0.193 0 0.241 0.145 0.241 0.338z"/>
</svg>